<svg viewBox="0 0 53 53" xmlns="http://www.w3.org/2000/svg"><path d="M2 2h1v1H2Zm1 0h1v1H3Zm1 0h1v1H4Zm1 0h1v1H5Zm1 0h1v1H6Zm1 0h1v1H7Zm1 0h1v1H8Zm2 0h1v1h-1Zm1 0h1v1h-1Zm2 0h1v1h-1Zm2 0h1v1h-1Zm4 0h1v1h-1Zm3 0h1v1h-1Zm2 0h1v1h-1Zm2 0h1v1h-1Zm3 0h1v1h-1Zm4 0h1v1h-1Zm3 0h1v1h-1Zm2 0h1v1h-1Zm1 0h1v1h-1Zm3 0h1v1h-1Zm2 0h1v1h-1Zm1 0h1v1h-1Zm1 0h1v1h-1Zm1 0h1v1h-1Zm1 0h1v1h-1Zm1 0h1v1h-1Zm1 0h1v1h-1ZM2 3h1v1H2Zm6 0h1v1H8Zm2 0h1v1h-1Zm2 0h1v1h-1Zm1 0h1v1h-1Zm2 0h1v1h-1Zm1 0h1v1h-1Zm2 0h1v1h-1Zm2 0h1v1h-1Zm2 0h1v1h-1Zm2 0h1v1h-1Zm1 0h1v1h-1Zm1 0h1v1h-1Zm1 0h1v1h-1Zm1 0h1v1h-1Zm1 0h1v1h-1Zm1 0h1v1h-1Zm2 0h1v1h-1Zm4 0h1v1h-1Zm3 0h1v1h-1Zm1 0h1v1h-1Zm1 0h1v1h-1Zm1 0h1v1h-1Zm2 0h1v1h-1Zm6 0h1v1h-1ZM2 4h1v1H2Zm2 0h1v1H4Zm1 0h1v1H5Zm1 0h1v1H6Zm2 0h1v1H8Zm2 0h1v1h-1Zm1 0h1v1h-1Zm4 0h1v1h-1Zm1 0h1v1h-1Zm5 0h1v1h-1Zm3 0h1v1h-1Zm2 0h1v1h-1Zm1 0h1v1h-1Zm2 0h1v1h-1Zm2 0h1v1h-1Zm1 0h1v1h-1Zm2 0h1v1h-1Zm2 0h1v1h-1Zm1 0h1v1h-1Zm2 0h1v1h-1Zm2 0h1v1h-1Zm1 0h1v1h-1Zm2 0h1v1h-1Zm2 0h1v1h-1Zm1 0h1v1h-1Zm1 0h1v1h-1Zm2 0h1v1h-1ZM2 5h1v1H2Zm2 0h1v1H4Zm1 0h1v1H5Zm1 0h1v1H6Zm2 0h1v1H8Zm3 0h1v1h-1Zm1 0h1v1h-1Zm1 0h1v1h-1Zm1 0h1v1h-1Zm1 0h1v1h-1Zm1 0h1v1h-1Zm6 0h1v1h-1Zm1 0h1v1h-1Zm1 0h1v1h-1Zm1 0h1v1h-1Zm2 0h1v1h-1Zm2 0h1v1h-1Zm1 0h1v1h-1Zm1 0h1v1h-1Zm1 0h1v1h-1Zm2 0h1v1h-1Zm1 0h1v1h-1Zm1 0h1v1h-1Zm2 0h1v1h-1Zm1 0h1v1h-1Zm2 0h1v1h-1Zm3 0h1v1h-1Zm2 0h1v1h-1Zm1 0h1v1h-1Zm1 0h1v1h-1Zm2 0h1v1h-1ZM2 6h1v1H2Zm2 0h1v1H4Zm1 0h1v1H5Zm1 0h1v1H6Zm2 0h1v1H8Zm2 0h1v1h-1Zm3 0h1v1h-1Zm1 0h1v1h-1Zm3 0h1v1h-1Zm1 0h1v1h-1Zm1 0h1v1h-1Zm2 0h1v1h-1Zm2 0h1v1h-1Zm1 0h1v1h-1Zm1 0h1v1h-1Zm1 0h1v1h-1Zm1 0h1v1h-1Zm1 0h1v1h-1Zm1 0h1v1h-1Zm2 0h1v1h-1Zm1 0h1v1h-1Zm1 0h1v1h-1Zm1 0h1v1h-1Zm4 0h1v1h-1Zm1 0h1v1h-1Zm5 0h1v1h-1Zm2 0h1v1h-1Zm1 0h1v1h-1Zm1 0h1v1h-1Zm2 0h1v1h-1ZM2 7h1v1H2Zm6 0h1v1H8Zm6 0h1v1h-1Zm1 0h1v1h-1Zm3 0h1v1h-1Zm1 0h1v1h-1Zm3 0h1v1h-1Zm1 0h1v1h-1Zm1 0h1v1h-1Zm4 0h1v1h-1Zm1 0h1v1h-1Zm2 0h1v1h-1Zm2 0h1v1h-1Zm2 0h1v1h-1Zm3 0h1v1h-1Zm1 0h1v1h-1Zm1 0h1v1h-1Zm4 0h1v1h-1Zm6 0h1v1h-1ZM2 8h1v1H2Zm1 0h1v1H3Zm1 0h1v1H4Zm1 0h1v1H5Zm1 0h1v1H6Zm1 0h1v1H7Zm1 0h1v1H8Zm2 0h1v1h-1Zm2 0h1v1h-1Zm2 0h1v1h-1Zm2 0h1v1h-1Zm2 0h1v1h-1Zm2 0h1v1h-1Zm2 0h1v1h-1Zm2 0h1v1h-1Zm2 0h1v1h-1Zm2 0h1v1h-1Zm2 0h1v1h-1Zm2 0h1v1h-1Zm2 0h1v1h-1Zm2 0h1v1h-1Zm2 0h1v1h-1Zm2 0h1v1h-1Zm2 0h1v1h-1Zm2 0h1v1h-1Zm1 0h1v1h-1Zm1 0h1v1h-1Zm1 0h1v1h-1Zm1 0h1v1h-1Zm1 0h1v1h-1Zm1 0h1v1h-1ZM11 9h1v1h-1Zm1 0h1v1h-1Zm1 0h1v1h-1Zm3 0h1v1h-1Zm1 0h1v1h-1Zm2 0h1v1h-1Zm1 0h1v1h-1Zm3 0h1v1h-1Zm1 0h1v1h-1Zm4 0h1v1h-1Zm2 0h1v1h-1Zm1 0h1v1h-1Zm5 0h1v1h-1Zm1 0h1v1h-1Zm2 0h1v1h-1ZM2 10h1v1H2Zm3 0h1v1H5Zm1 0h1v1H6Zm1 0h1v1H7Zm1 0h1v1H8Zm1 0h1v1H9Zm1 0h1v1h-1Zm1 0h1v1h-1Zm1 0h1v1h-1Zm2 0h1v1h-1Zm4 0h1v1h-1Zm4 0h1v1h-1Zm1 0h1v1h-1Zm1 0h1v1h-1Zm1 0h1v1h-1Zm1 0h1v1h-1Zm1 0h1v1h-1Zm1 0h1v1h-1Zm2 0h1v1h-1Zm1 0h1v1h-1Zm1 0h1v1h-1Zm1 0h1v1h-1Zm3 0h1v1h-1Zm1 0h1v1h-1Zm1 0h1v1h-1Zm3 0h1v1h-1Zm2 0h1v1h-1Zm3 0h1v1h-1Zm2 0h1v1h-1Zm1 0h1v1h-1Zm1 0h1v1h-1ZM3 11h1v1H3Zm1 0h1v1H4Zm2 0h1v1H6Zm1 0h1v1H7Zm3 0h1v1h-1Zm2 0h1v1h-1Zm1 0h1v1h-1Zm2 0h1v1h-1Zm1 0h1v1h-1Zm2 0h1v1h-1Zm1 0h1v1h-1Zm1 0h1v1h-1Zm2 0h1v1h-1Zm1 0h1v1h-1Zm4 0h1v1h-1Zm1 0h1v1h-1Zm1 0h1v1h-1Zm2 0h1v1h-1Zm1 0h1v1h-1Zm1 0h1v1h-1Zm1 0h1v1h-1Zm2 0h1v1h-1Zm3 0h1v1h-1Zm1 0h1v1h-1Zm1 0h1v1h-1Zm1 0h1v1h-1Zm2 0h1v1h-1Zm3 0h1v1h-1Zm1 0h1v1h-1Zm1 0h1v1h-1ZM2 12h1v1H2Zm3 0h1v1H5Zm2 0h1v1H7Zm1 0h1v1H8Zm1 0h1v1H9Zm3 0h1v1h-1Zm4 0h1v1h-1Zm2 0h1v1h-1Zm5 0h1v1h-1Zm4 0h1v1h-1Zm2 0h1v1h-1Zm2 0h1v1h-1Zm1 0h1v1h-1Zm3 0h1v1h-1Zm1 0h1v1h-1Zm1 0h1v1h-1Zm1 0h1v1h-1Zm3 0h1v1h-1Zm1 0h1v1h-1Zm4 0h1v1h-1Zm3 0h1v1h-1Zm1 0h1v1h-1ZM2 13h1v1H2Zm1 0h1v1H3Zm4 0h1v1H7Zm2 0h1v1H9Zm1 0h1v1h-1Zm1 0h1v1h-1Zm2 0h1v1h-1Zm10 0h1v1h-1Zm1 0h1v1h-1Zm1 0h1v1h-1Zm4 0h1v1h-1Zm2 0h1v1h-1Zm1 0h1v1h-1Zm2 0h1v1h-1Zm2 0h1v1h-1Zm1 0h1v1h-1Zm4 0h1v1h-1Zm1 0h1v1h-1Zm3 0h1v1h-1Zm2 0h1v1h-1Zm1 0h1v1h-1Zm1 0h1v1h-1ZM3 14h1v1H3Zm3 0h1v1H6Zm1 0h1v1H7Zm1 0h1v1H8Zm3 0h1v1h-1Zm1 0h1v1h-1Zm1 0h1v1h-1Zm2 0h1v1h-1Zm1 0h1v1h-1Zm2 0h1v1h-1Zm1 0h1v1h-1Zm1 0h1v1h-1Zm2 0h1v1h-1Zm1 0h1v1h-1Zm3 0h1v1h-1Zm4 0h1v1h-1Zm1 0h1v1h-1Zm3 0h1v1h-1Zm1 0h1v1h-1Zm3 0h1v1h-1Zm1 0h1v1h-1Zm1 0h1v1h-1Zm6 0h1v1h-1Zm3 0h1v1h-1Zm1 0h1v1h-1ZM2 15h1v1H2Zm1 0h1v1H3Zm1 0h1v1H4Zm3 0h1v1H7Zm2 0h1v1H9Zm2 0h1v1h-1Zm2 0h1v1h-1Zm5 0h1v1h-1Zm2 0h1v1h-1Zm1 0h1v1h-1Zm1 0h1v1h-1Zm4 0h1v1h-1Zm2 0h1v1h-1Zm1 0h1v1h-1Zm1 0h1v1h-1Zm2 0h1v1h-1Zm1 0h1v1h-1Zm1 0h1v1h-1Zm4 0h1v1h-1Zm2 0h1v1h-1Zm4 0h1v1h-1Zm1 0h1v1h-1Zm1 0h1v1h-1Zm1 0h1v1h-1Zm1 0h1v1h-1ZM2 16h1v1H2Zm2 0h1v1H4Zm1 0h1v1H5Zm3 0h1v1H8Zm2 0h1v1h-1Zm1 0h1v1h-1Zm1 0h1v1h-1Zm1 0h1v1h-1Zm4 0h1v1h-1Zm2 0h1v1h-1Zm1 0h1v1h-1Zm4 0h1v1h-1Zm2 0h1v1h-1Zm1 0h1v1h-1Zm1 0h1v1h-1Zm3 0h1v1h-1Zm3 0h1v1h-1Zm4 0h1v1h-1Zm1 0h1v1h-1Zm1 0h1v1h-1Zm1 0h1v1h-1Zm2 0h1v1h-1Zm2 0h1v1h-1Zm4 0h1v1h-1Zm1 0h1v1h-1ZM3 17h1v1H3Zm1 0h1v1H4Zm1 0h1v1H5Zm6 0h1v1h-1Zm1 0h1v1h-1Zm3 0h1v1h-1Zm1 0h1v1h-1Zm3 0h1v1h-1Zm3 0h1v1h-1Zm2 0h1v1h-1Zm3 0h1v1h-1Zm1 0h1v1h-1Zm1 0h1v1h-1Zm1 0h1v1h-1Zm2 0h1v1h-1Zm1 0h1v1h-1Zm1 0h1v1h-1Zm1 0h1v1h-1Zm4 0h1v1h-1Zm3 0h1v1h-1Zm1 0h1v1h-1Zm1 0h1v1h-1Zm3 0h1v1h-1Zm1 0h1v1h-1Zm1 0h1v1h-1Zm1 0h1v1h-1ZM2 18h1v1H2Zm2 0h1v1H4Zm1 0h1v1H5Zm1 0h1v1H6Zm1 0h1v1H7Zm1 0h1v1H8Zm4 0h1v1h-1Zm1 0h1v1h-1Zm4 0h1v1h-1Zm2 0h1v1h-1Zm2 0h1v1h-1Zm5 0h1v1h-1Zm2 0h1v1h-1Zm1 0h1v1h-1Zm3 0h1v1h-1Zm2 0h1v1h-1Zm2 0h1v1h-1Zm2 0h1v1h-1Zm1 0h1v1h-1Zm2 0h1v1h-1Zm3 0h1v1h-1Zm1 0h1v1h-1Zm1 0h1v1h-1Zm2 0h1v1h-1ZM2 19h1v1H2Zm1 0h1v1H3Zm1 0h1v1H4Zm2 0h1v1H6Zm5 0h1v1h-1Zm1 0h1v1h-1Zm2 0h1v1h-1Zm1 0h1v1h-1Zm1 0h1v1h-1Zm1 0h1v1h-1Zm1 0h1v1h-1Zm2 0h1v1h-1Zm4 0h1v1h-1Zm1 0h1v1h-1Zm4 0h1v1h-1Zm1 0h1v1h-1Zm1 0h1v1h-1Zm1 0h1v1h-1Zm1 0h1v1h-1Zm2 0h1v1h-1Zm1 0h1v1h-1Zm1 0h1v1h-1Zm1 0h1v1h-1Zm1 0h1v1h-1Zm2 0h1v1h-1Zm1 0h1v1h-1Zm1 0h1v1h-1Zm1 0h1v1h-1Zm4 0h1v1h-1Zm1 0h1v1h-1ZM2 20h1v1H2Zm3 0h1v1H5Zm3 0h1v1H8Zm2 0h1v1h-1Zm1 0h1v1h-1Zm1 0h1v1h-1Zm1 0h1v1h-1Zm1 0h1v1h-1Zm2 0h1v1h-1Zm1 0h1v1h-1Zm1 0h1v1h-1Zm2 0h1v1h-1Zm2 0h1v1h-1Zm5 0h1v1h-1Zm2 0h1v1h-1Zm1 0h1v1h-1Zm2 0h1v1h-1Zm1 0h1v1h-1Zm1 0h1v1h-1Zm1 0h1v1h-1Zm3 0h1v1h-1Zm3 0h1v1h-1Zm1 0h1v1h-1Zm1 0h1v1h-1Zm3 0h1v1h-1Zm2 0h1v1h-1Zm2 0h1v1h-1ZM4 21h1v1H4Zm1 0h1v1H5Zm1 0h1v1H6Zm1 0h1v1H7Zm2 0h1v1H9Zm2 0h1v1h-1Zm1 0h1v1h-1Zm3 0h1v1h-1Zm1 0h1v1h-1Zm1 0h1v1h-1Zm1 0h1v1h-1Zm4 0h1v1h-1Zm1 0h1v1h-1Zm4 0h1v1h-1Zm1 0h1v1h-1Zm2 0h1v1h-1Zm1 0h1v1h-1Zm2 0h1v1h-1Zm3 0h1v1h-1Zm3 0h1v1h-1Zm1 0h1v1h-1Zm4 0h1v1h-1Zm1 0h1v1h-1Zm2 0h1v1h-1Zm2 0h1v1h-1Zm1 0h1v1h-1ZM2 22h1v1H2Zm2 0h1v1H4Zm1 0h1v1H5Zm2 0h1v1H7Zm1 0h1v1H8Zm1 0h1v1H9Zm1 0h1v1h-1Zm2 0h1v1h-1Zm1 0h1v1h-1Zm2 0h1v1h-1Zm3 0h1v1h-1Zm1 0h1v1h-1Zm1 0h1v1h-1Zm2 0h1v1h-1Zm3 0h1v1h-1Zm1 0h1v1h-1Zm4 0h1v1h-1Zm3 0h1v1h-1Zm2 0h1v1h-1Zm1 0h1v1h-1Zm2 0h1v1h-1Zm1 0h1v1h-1Zm4 0h1v1h-1Zm1 0h1v1h-1Zm3 0h1v1h-1Zm2 0h1v1h-1ZM3 23h1v1H3Zm2 0h1v1H5Zm1 0h1v1H6Zm1 0h1v1H7Zm5 0h1v1h-1Zm2 0h1v1h-1Zm1 0h1v1h-1Zm1 0h1v1h-1Zm1 0h1v1h-1Zm2 0h1v1h-1Zm2 0h1v1h-1Zm1 0h1v1h-1Zm1 0h1v1h-1Zm1 0h1v1h-1Zm4 0h1v1h-1Zm1 0h1v1h-1Zm1 0h1v1h-1Zm1 0h1v1h-1Zm1 0h1v1h-1Zm2 0h1v1h-1Zm1 0h1v1h-1Zm1 0h1v1h-1Zm1 0h1v1h-1Zm1 0h1v1h-1Zm1 0h1v1h-1Zm1 0h1v1h-1Zm1 0h1v1h-1Zm1 0h1v1h-1Zm1 0h1v1h-1Zm1 0h1v1h-1Zm2 0h1v1h-1Zm2 0h1v1h-1Zm1 0h1v1h-1ZM3 24h1v1H3Zm1 0h1v1H4Zm2 0h1v1H6Zm1 0h1v1H7Zm1 0h1v1H8Zm1 0h1v1H9Zm1 0h1v1h-1Zm3 0h1v1h-1Zm1 0h1v1h-1Zm3 0h1v1h-1Zm2 0h1v1h-1Zm1 0h1v1h-1Zm2 0h1v1h-1Zm1 0h1v1h-1Zm1 0h1v1h-1Zm1 0h1v1h-1Zm1 0h1v1h-1Zm1 0h1v1h-1Zm1 0h1v1h-1Zm3 0h1v1h-1Zm2 0h1v1h-1Zm1 0h1v1h-1Zm1 0h1v1h-1Zm1 0h1v1h-1Zm2 0h1v1h-1Zm4 0h1v1h-1Zm1 0h1v1h-1Zm1 0h1v1h-1Zm1 0h1v1h-1Zm1 0h1v1h-1Zm1 0h1v1h-1Zm3 0h1v1h-1ZM4 25h1v1H4Zm2 0h1v1H6Zm4 0h1v1h-1Zm1 0h1v1h-1Zm2 0h1v1h-1Zm1 0h1v1h-1Zm1 0h1v1h-1Zm1 0h1v1h-1Zm1 0h1v1h-1Zm1 0h1v1h-1Zm6 0h1v1h-1Zm4 0h1v1h-1Zm1 0h1v1h-1Zm2 0h1v1h-1Zm2 0h1v1h-1Zm1 0h1v1h-1Zm1 0h1v1h-1Zm1 0h1v1h-1Zm3 0h1v1h-1Zm1 0h1v1h-1Zm2 0h1v1h-1Zm4 0h1v1h-1Zm1 0h1v1h-1Zm1 0h1v1h-1ZM3 26h1v1H3Zm1 0h1v1H4Zm2 0h1v1H6Zm2 0h1v1H8Zm2 0h1v1h-1Zm4 0h1v1h-1Zm2 0h1v1h-1Zm1 0h1v1h-1Zm5 0h1v1h-1Zm1 0h1v1h-1Zm1 0h1v1h-1Zm2 0h1v1h-1Zm2 0h1v1h-1Zm2 0h1v1h-1Zm2 0h1v1h-1Zm2 0h1v1h-1Zm1 0h1v1h-1Zm3 0h1v1h-1Zm1 0h1v1h-1Zm3 0h1v1h-1Zm2 0h1v1h-1Zm2 0h1v1h-1Zm1 0h1v1h-1Zm1 0h1v1h-1ZM5 27h1v1H5Zm1 0h1v1H6Zm4 0h1v1h-1Zm1 0h1v1h-1Zm1 0h1v1h-1Zm4 0h1v1h-1Zm6 0h1v1h-1Zm2 0h1v1h-1Zm4 0h1v1h-1Zm4 0h1v1h-1Zm1 0h1v1h-1Zm1 0h1v1h-1Zm1 0h1v1h-1Zm2 0h1v1h-1Zm1 0h1v1h-1Zm2 0h1v1h-1Zm2 0h1v1h-1Zm4 0h1v1h-1Zm3 0h1v1h-1ZM6 28h1v1H6Zm1 0h1v1H7Zm1 0h1v1H8Zm1 0h1v1H9Zm1 0h1v1h-1Zm2 0h1v1h-1Zm1 0h1v1h-1Zm2 0h1v1h-1Zm1 0h1v1h-1Zm1 0h1v1h-1Zm2 0h1v1h-1Zm1 0h1v1h-1Zm4 0h1v1h-1Zm1 0h1v1h-1Zm1 0h1v1h-1Zm1 0h1v1h-1Zm1 0h1v1h-1Zm1 0h1v1h-1Zm1 0h1v1h-1Zm5 0h1v1h-1Zm5 0h1v1h-1Zm1 0h1v1h-1Zm1 0h1v1h-1Zm1 0h1v1h-1Zm1 0h1v1h-1Zm1 0h1v1h-1Zm1 0h1v1h-1Zm1 0h1v1h-1Zm3 0h1v1h-1ZM3 29h1v1H3Zm1 0h1v1H4Zm3 0h1v1H7Zm2 0h1v1H9Zm4 0h1v1h-1Zm1 0h1v1h-1Zm2 0h1v1h-1Zm2 0h1v1h-1Zm1 0h1v1h-1Zm1 0h1v1h-1Zm2 0h1v1h-1Zm1 0h1v1h-1Zm1 0h1v1h-1Zm3 0h1v1h-1Zm1 0h1v1h-1Zm1 0h1v1h-1Zm3 0h1v1h-1Zm4 0h1v1h-1Zm2 0h1v1h-1Zm2 0h1v1h-1Zm1 0h1v1h-1Zm2 0h1v1h-1Zm1 0h1v1h-1Zm1 0h1v1h-1Zm1 0h1v1h-1Zm2 0h1v1h-1Zm1 0h1v1h-1Zm1 0h1v1h-1ZM2 30h1v1H2Zm1 0h1v1H3Zm5 0h1v1H8Zm3 0h1v1h-1Zm1 0h1v1h-1Zm2 0h1v1h-1Zm2 0h1v1h-1Zm1 0h1v1h-1Zm3 0h1v1h-1Zm2 0h1v1h-1Zm1 0h1v1h-1Zm3 0h1v1h-1Zm1 0h1v1h-1Zm1 0h1v1h-1Zm1 0h1v1h-1Zm2 0h1v1h-1Zm1 0h1v1h-1Zm1 0h1v1h-1Zm1 0h1v1h-1Zm1 0h1v1h-1Zm3 0h1v1h-1Zm1 0h1v1h-1Zm2 0h1v1h-1Zm2 0h1v1h-1Zm1 0h1v1h-1Zm1 0h1v1h-1Zm2 0h1v1h-1Zm1 0h1v1h-1Zm2 0h1v1h-1ZM2 31h1v1H2Zm2 0h1v1H4Zm1 0h1v1H5Zm2 0h1v1H7Zm2 0h1v1H9Zm7 0h1v1h-1Zm1 0h1v1h-1Zm1 0h1v1h-1Zm3 0h1v1h-1Zm1 0h1v1h-1Zm3 0h1v1h-1Zm1 0h1v1h-1Zm1 0h1v1h-1Zm2 0h1v1h-1Zm1 0h1v1h-1Zm2 0h1v1h-1Zm3 0h1v1h-1Zm1 0h1v1h-1Zm1 0h1v1h-1Zm1 0h1v1h-1Zm1 0h1v1h-1Zm2 0h1v1h-1Zm2 0h1v1h-1Zm1 0h1v1h-1Zm4 0h1v1h-1Zm1 0h1v1h-1ZM2 32h1v1H2Zm4 0h1v1H6Zm1 0h1v1H7Zm1 0h1v1H8Zm2 0h1v1h-1Zm2 0h1v1h-1Zm2 0h1v1h-1Zm4 0h1v1h-1Zm1 0h1v1h-1Zm2 0h1v1h-1Zm5 0h1v1h-1Zm2 0h1v1h-1Zm5 0h1v1h-1Zm1 0h1v1h-1Zm1 0h1v1h-1Zm3 0h1v1h-1Zm1 0h1v1h-1Zm5 0h1v1h-1Zm2 0h1v1h-1Zm1 0h1v1h-1Zm3 0h1v1h-1ZM3 33h1v1H3Zm3 0h1v1H6Zm3 0h1v1H9Zm1 0h1v1h-1Zm1 0h1v1h-1Zm4 0h1v1h-1Zm4 0h1v1h-1Zm1 0h1v1h-1Zm3 0h1v1h-1Zm3 0h1v1h-1Zm1 0h1v1h-1Zm4 0h1v1h-1Zm2 0h1v1h-1Zm1 0h1v1h-1Zm1 0h1v1h-1Zm1 0h1v1h-1Zm1 0h1v1h-1Zm2 0h1v1h-1Zm1 0h1v1h-1Zm1 0h1v1h-1Zm5 0h1v1h-1Zm1 0h1v1h-1Zm2 0h1v1h-1Zm1 0h1v1h-1ZM3 34h1v1H3Zm1 0h1v1H4Zm3 0h1v1H7Zm1 0h1v1H8Zm1 0h1v1H9Zm2 0h1v1h-1Zm1 0h1v1h-1Zm1 0h1v1h-1Zm3 0h1v1h-1Zm2 0h1v1h-1Zm1 0h1v1h-1Zm2 0h1v1h-1Zm1 0h1v1h-1Zm3 0h1v1h-1Zm2 0h1v1h-1Zm7 0h1v1h-1Zm1 0h1v1h-1Zm2 0h1v1h-1Zm1 0h1v1h-1Zm1 0h1v1h-1Zm1 0h1v1h-1Zm1 0h1v1h-1Zm5 0h1v1h-1Zm1 0h1v1h-1Zm2 0h1v1h-1Zm1 0h1v1h-1ZM3 35h1v1H3Zm2 0h1v1H5Zm1 0h1v1H6Zm1 0h1v1H7Zm2 0h1v1H9Zm2 0h1v1h-1Zm5 0h1v1h-1Zm1 0h1v1h-1Zm2 0h1v1h-1Zm3 0h1v1h-1Zm1 0h1v1h-1Zm1 0h1v1h-1Zm2 0h1v1h-1Zm1 0h1v1h-1Zm1 0h1v1h-1Zm3 0h1v1h-1Zm5 0h1v1h-1Zm1 0h1v1h-1Zm1 0h1v1h-1Zm1 0h1v1h-1Zm1 0h1v1h-1Zm6 0h1v1h-1ZM2 36h1v1H2Zm1 0h1v1H3Zm1 0h1v1H4Zm1 0h1v1H5Zm3 0h1v1H8Zm1 0h1v1H9Zm6 0h1v1h-1Zm1 0h1v1h-1Zm1 0h1v1h-1Zm2 0h1v1h-1Zm1 0h1v1h-1Zm1 0h1v1h-1Zm1 0h1v1h-1Zm1 0h1v1h-1Zm1 0h1v1h-1Zm1 0h1v1h-1Zm2 0h1v1h-1Zm1 0h1v1h-1Zm2 0h1v1h-1Zm1 0h1v1h-1Zm1 0h1v1h-1Zm1 0h1v1h-1Zm2 0h1v1h-1Zm1 0h1v1h-1Zm1 0h1v1h-1Zm1 0h1v1h-1Zm3 0h1v1h-1Zm1 0h1v1h-1Zm2 0h1v1h-1Zm6 0h1v1h-1ZM3 37h1v1H3Zm3 0h1v1H6Zm1 0h1v1H7Zm2 0h1v1H9Zm1 0h1v1h-1Zm2 0h1v1h-1Zm1 0h1v1h-1Zm2 0h1v1h-1Zm1 0h1v1h-1Zm1 0h1v1h-1Zm1 0h1v1h-1Zm1 0h1v1h-1Zm1 0h1v1h-1Zm1 0h1v1h-1Zm3 0h1v1h-1Zm1 0h1v1h-1Zm1 0h1v1h-1Zm2 0h1v1h-1Zm1 0h1v1h-1Zm2 0h1v1h-1Zm1 0h1v1h-1Zm2 0h1v1h-1Zm2 0h1v1h-1Zm1 0h1v1h-1Zm2 0h1v1h-1Zm1 0h1v1h-1Zm1 0h1v1h-1Zm1 0h1v1h-1Zm5 0h1v1h-1Zm1 0h1v1h-1Zm1 0h1v1h-1Zm1 0h1v1h-1ZM3 38h1v1H3Zm4 0h1v1H7Zm1 0h1v1H8Zm2 0h1v1h-1Zm1 0h1v1h-1Zm5 0h1v1h-1Zm3 0h1v1h-1Zm4 0h1v1h-1Zm2 0h1v1h-1Zm3 0h1v1h-1Zm2 0h1v1h-1Zm4 0h1v1h-1Zm2 0h1v1h-1Zm2 0h1v1h-1Zm3 0h1v1h-1Zm1 0h1v1h-1Zm2 0h1v1h-1Zm1 0h1v1h-1Zm2 0h1v1h-1Zm2 0h1v1h-1Zm1 0h1v1h-1ZM3 39h1v1H3Zm2 0h1v1H5Zm6 0h1v1h-1Zm1 0h1v1h-1Zm1 0h1v1h-1Zm1 0h1v1h-1Zm1 0h1v1h-1Zm1 0h1v1h-1Zm5 0h1v1h-1Zm1 0h1v1h-1Zm3 0h1v1h-1Zm1 0h1v1h-1Zm2 0h1v1h-1Zm1 0h1v1h-1Zm1 0h1v1h-1Zm1 0h1v1h-1Zm1 0h1v1h-1Zm1 0h1v1h-1Zm2 0h1v1h-1Zm3 0h1v1h-1Zm2 0h1v1h-1Zm1 0h1v1h-1Zm2 0h1v1h-1Zm1 0h1v1h-1Zm2 0h1v1h-1ZM3 40h1v1H3Zm4 0h1v1H7Zm1 0h1v1H8Zm1 0h1v1H9Zm1 0h1v1h-1Zm2 0h1v1h-1Zm2 0h1v1h-1Zm1 0h1v1h-1Zm2 0h1v1h-1Zm3 0h1v1h-1Zm1 0h1v1h-1Zm1 0h1v1h-1Zm2 0h1v1h-1Zm3 0h1v1h-1Zm7 0h1v1h-1Zm1 0h1v1h-1Zm2 0h1v1h-1Zm1 0h1v1h-1Zm2 0h1v1h-1Zm1 0h1v1h-1Zm3 0h1v1h-1Zm2 0h1v1h-1Zm3 0h1v1h-1Zm1 0h1v1h-1ZM3 41h1v1H3Zm1 0h1v1H4Zm1 0h1v1H5Zm6 0h1v1h-1Zm9 0h1v1h-1Zm2 0h1v1h-1Zm3 0h1v1h-1Zm2 0h1v1h-1Zm2 0h1v1h-1Zm2 0h1v1h-1Zm1 0h1v1h-1Zm4 0h1v1h-1Zm4 0h1v1h-1Zm1 0h1v1h-1Zm2 0h1v1h-1Zm2 0h1v1h-1Zm2 0h1v1h-1Zm1 0h1v1h-1Zm1 0h1v1h-1Zm1 0h1v1h-1ZM2 42h1v1H2Zm1 0h1v1H3Zm1 0h1v1H4Zm4 0h1v1H8Zm3 0h1v1h-1Zm3 0h1v1h-1Zm1 0h1v1h-1Zm3 0h1v1h-1Zm2 0h1v1h-1Zm1 0h1v1h-1Zm1 0h1v1h-1Zm2 0h1v1h-1Zm1 0h1v1h-1Zm1 0h1v1h-1Zm1 0h1v1h-1Zm1 0h1v1h-1Zm1 0h1v1h-1Zm3 0h1v1h-1Zm1 0h1v1h-1Zm1 0h1v1h-1Zm1 0h1v1h-1Zm1 0h1v1h-1Zm2 0h1v1h-1Zm1 0h1v1h-1Zm1 0h1v1h-1Zm1 0h1v1h-1Zm1 0h1v1h-1Zm1 0h1v1h-1Zm1 0h1v1h-1Zm1 0h1v1h-1Zm1 0h1v1h-1Zm1 0h1v1h-1Zm1 0h1v1h-1Zm1 0h1v1h-1Zm-39 1h1v1h-1Zm1 0h1v1h-1Zm1 0h1v1h-1Zm1 0h1v1h-1Zm4 0h1v1h-1Zm3 0h1v1h-1Zm1 0h1v1h-1Zm3 0h1v1h-1Zm4 0h1v1h-1Zm3 0h1v1h-1Zm1 0h1v1h-1Zm1 0h1v1h-1Zm1 0h1v1h-1Zm1 0h1v1h-1Zm1 0h1v1h-1Zm2 0h1v1h-1Zm1 0h1v1h-1Zm2 0h1v1h-1Zm1 0h1v1h-1Zm4 0h1v1h-1Zm1 0h1v1h-1Zm1 0h1v1h-1Zm1 0h1v1h-1ZM2 44h1v1H2Zm1 0h1v1H3Zm1 0h1v1H4Zm1 0h1v1H5Zm1 0h1v1H6Zm1 0h1v1H7Zm1 0h1v1H8Zm2 0h1v1h-1Zm1 0h1v1h-1Zm3 0h1v1h-1Zm3 0h1v1h-1Zm2 0h1v1h-1Zm3 0h1v1h-1Zm2 0h1v1h-1Zm2 0h1v1h-1Zm2 0h1v1h-1Zm1 0h1v1h-1Zm1 0h1v1h-1Zm5 0h1v1h-1Zm3 0h1v1h-1Zm4 0h1v1h-1Zm2 0h1v1h-1Zm2 0h1v1h-1Zm2 0h1v1h-1Zm1 0h1v1h-1Zm1 0h1v1h-1ZM2 45h1v1H2Zm6 0h1v1H8Zm2 0h1v1h-1Zm2 0h1v1h-1Zm1 0h1v1h-1Zm1 0h1v1h-1Zm1 0h1v1h-1Zm1 0h1v1h-1Zm3 0h1v1h-1Zm1 0h1v1h-1Zm4 0h1v1h-1Zm4 0h1v1h-1Zm2 0h1v1h-1Zm1 0h1v1h-1Zm1 0h1v1h-1Zm5 0h1v1h-1Zm5 0h1v1h-1Zm4 0h1v1h-1ZM2 46h1v1H2Zm2 0h1v1H4Zm1 0h1v1H5Zm1 0h1v1H6Zm2 0h1v1H8Zm2 0h1v1h-1Zm1 0h1v1h-1Zm1 0h1v1h-1Zm2 0h1v1h-1Zm2 0h1v1h-1Zm1 0h1v1h-1Zm1 0h1v1h-1Zm5 0h1v1h-1Zm1 0h1v1h-1Zm1 0h1v1h-1Zm1 0h1v1h-1Zm1 0h1v1h-1Zm1 0h1v1h-1Zm2 0h1v1h-1Zm1 0h1v1h-1Zm5 0h1v1h-1Zm1 0h1v1h-1Zm1 0h1v1h-1Zm2 0h1v1h-1Zm1 0h1v1h-1Zm1 0h1v1h-1Zm1 0h1v1h-1Zm1 0h1v1h-1Zm1 0h1v1h-1Zm1 0h1v1h-1Zm4 0h1v1h-1ZM2 47h1v1H2Zm2 0h1v1H4Zm1 0h1v1H5Zm1 0h1v1H6Zm2 0h1v1H8Zm2 0h1v1h-1Zm4 0h1v1h-1Zm2 0h1v1h-1Zm2 0h1v1h-1Zm1 0h1v1h-1Zm1 0h1v1h-1Zm2 0h1v1h-1Zm1 0h1v1h-1Zm4 0h1v1h-1Zm2 0h1v1h-1Zm2 0h1v1h-1Zm1 0h1v1h-1Zm1 0h1v1h-1Zm1 0h1v1h-1Zm1 0h1v1h-1Zm1 0h1v1h-1Zm3 0h1v1h-1Zm1 0h1v1h-1Zm4 0h1v1h-1Zm1 0h1v1h-1Zm2 0h1v1h-1Zm1 0h1v1h-1Zm2 0h1v1h-1ZM2 48h1v1H2Zm2 0h1v1H4Zm1 0h1v1H5Zm1 0h1v1H6Zm2 0h1v1H8Zm5 0h1v1h-1Zm3 0h1v1h-1Zm2 0h1v1h-1Zm3 0h1v1h-1Zm1 0h1v1h-1Zm1 0h1v1h-1Zm1 0h1v1h-1Zm2 0h1v1h-1Zm4 0h1v1h-1Zm1 0h1v1h-1Zm2 0h1v1h-1Zm2 0h1v1h-1Zm1 0h1v1h-1Zm1 0h1v1h-1Zm1 0h1v1h-1Zm5 0h1v1h-1Zm2 0h1v1h-1Zm1 0h1v1h-1Zm3 0h1v1h-1ZM2 49h1v1H2Zm6 0h1v1H8Zm4 0h1v1h-1Zm3 0h1v1h-1Zm2 0h1v1h-1Zm1 0h1v1h-1Zm5 0h1v1h-1Zm2 0h1v1h-1Zm2 0h1v1h-1Zm1 0h1v1h-1Zm1 0h1v1h-1Zm1 0h1v1h-1Zm1 0h1v1h-1Zm1 0h1v1h-1Zm3 0h1v1h-1Zm2 0h1v1h-1Zm2 0h1v1h-1Zm1 0h1v1h-1Zm1 0h1v1h-1Zm1 0h1v1h-1Zm1 0h1v1h-1Zm1 0h1v1h-1Zm4 0h1v1h-1Zm1 0h1v1h-1Zm1 0h1v1h-1ZM2 50h1v1H2Zm1 0h1v1H3Zm1 0h1v1H4Zm1 0h1v1H5Zm1 0h1v1H6Zm1 0h1v1H7Zm1 0h1v1H8Zm2 0h1v1h-1Zm2 0h1v1h-1Zm1 0h1v1h-1Zm3 0h1v1h-1Zm2 0h1v1h-1Zm2 0h1v1h-1Zm1 0h1v1h-1Zm3 0h1v1h-1Zm1 0h1v1h-1Zm1 0h1v1h-1Zm1 0h1v1h-1Zm1 0h1v1h-1Zm1 0h1v1h-1Zm1 0h1v1h-1Zm2 0h1v1h-1Zm1 0h1v1h-1Zm1 0h1v1h-1Zm1 0h1v1h-1Zm3 0h1v1h-1Zm2 0h1v1h-1Zm1 0h1v1h-1Zm2 0h1v1h-1Zm4 0h1v1h-1Zm3 0h1v1h-1Z"/></svg>