<svg viewBox="0 0 33 33" xmlns="http://www.w3.org/2000/svg"><path d="M2 2h1v1H2Zm1 0h1v1H3Zm1 0h1v1H4Zm1 0h1v1H5Zm1 0h1v1H6Zm1 0h1v1H7Zm1 0h1v1H8Zm3 0h1v1h-1Zm2 0h1v1h-1Zm1 0h1v1h-1Zm1 0h1v1h-1Zm3 0h1v1h-1Zm3 0h1v1h-1Zm1 0h1v1h-1Zm2 0h1v1h-1Zm1 0h1v1h-1Zm1 0h1v1h-1Zm1 0h1v1h-1Zm1 0h1v1h-1Zm1 0h1v1h-1Zm1 0h1v1h-1ZM2 3h1v1H2Zm6 0h1v1H8Zm2 0h1v1h-1Zm2 0h1v1h-1Zm4 0h1v1h-1Zm1 0h1v1h-1Zm1 0h1v1h-1Zm1 0h1v1h-1Zm2 0h1v1h-1Zm3 0h1v1h-1Zm6 0h1v1h-1ZM2 4h1v1H2Zm2 0h1v1H4Zm1 0h1v1H5Zm1 0h1v1H6Zm2 0h1v1H8Zm3 0h1v1h-1Zm2 0h1v1h-1Zm1 0h1v1h-1Zm1 0h1v1h-1Zm1 0h1v1h-1Zm2 0h1v1h-1Zm6 0h1v1h-1Zm2 0h1v1h-1Zm1 0h1v1h-1Zm1 0h1v1h-1Zm2 0h1v1h-1ZM2 5h1v1H2Zm2 0h1v1H4Zm1 0h1v1H5Zm1 0h1v1H6Zm2 0h1v1H8Zm3 0h1v1h-1Zm1 0h1v1h-1Zm3 0h1v1h-1Zm1 0h1v1h-1Zm1 0h1v1h-1Zm7 0h1v1h-1Zm2 0h1v1h-1Zm1 0h1v1h-1Zm1 0h1v1h-1Zm2 0h1v1h-1ZM2 6h1v1H2Zm2 0h1v1H4Zm1 0h1v1H5Zm1 0h1v1H6Zm2 0h1v1H8Zm2 0h1v1h-1Zm1 0h1v1h-1Zm2 0h1v1h-1Zm1 0h1v1h-1Zm2 0h1v1h-1Zm5 0h1v1h-1Zm1 0h1v1h-1Zm2 0h1v1h-1Zm2 0h1v1h-1Zm1 0h1v1h-1Zm1 0h1v1h-1Zm2 0h1v1h-1ZM2 7h1v1H2Zm6 0h1v1H8Zm3 0h1v1h-1Zm1 0h1v1h-1Zm3 0h1v1h-1Zm4 0h1v1h-1Zm2 0h1v1h-1Zm3 0h1v1h-1Zm6 0h1v1h-1ZM2 8h1v1H2Zm1 0h1v1H3Zm1 0h1v1H4Zm1 0h1v1H5Zm1 0h1v1H6Zm1 0h1v1H7Zm1 0h1v1H8Zm2 0h1v1h-1Zm2 0h1v1h-1Zm2 0h1v1h-1Zm2 0h1v1h-1Zm2 0h1v1h-1Zm2 0h1v1h-1Zm2 0h1v1h-1Zm2 0h1v1h-1Zm1 0h1v1h-1Zm1 0h1v1h-1Zm1 0h1v1h-1Zm1 0h1v1h-1Zm1 0h1v1h-1Zm1 0h1v1h-1ZM11 9h1v1h-1Zm4 0h1v1h-1Zm1 0h1v1h-1Zm2 0h1v1h-1Zm1 0h1v1h-1Zm2 0h1v1h-1Zm1 0h1v1h-1ZM2 10h1v1H2Zm2 0h1v1H4Zm2 0h1v1H6Zm2 0h1v1H8Zm3 0h1v1h-1Zm2 0h1v1h-1Zm1 0h1v1h-1Zm2 0h1v1h-1Zm1 0h1v1h-1Zm2 0h1v1h-1Zm1 0h1v1h-1Zm6 0h1v1h-1Zm3 0h1v1h-1ZM6 11h1v1H6Zm4 0h1v1h-1Zm2 0h1v1h-1Zm4 0h1v1h-1Zm1 0h1v1h-1Zm3 0h1v1h-1Zm3 0h1v1h-1Zm1 0h1v1h-1Zm1 0h1v1h-1Zm2 0h1v1h-1Zm1 0h1v1h-1Zm2 0h1v1h-1ZM2 12h1v1H2Zm2 0h1v1H4Zm1 0h1v1H5Zm1 0h1v1H6Zm2 0h1v1H8Zm4 0h1v1h-1Zm2 0h1v1h-1Zm1 0h1v1h-1Zm4 0h1v1h-1Zm4 0h1v1h-1Zm3 0h1v1h-1Zm4 0h1v1h-1ZM2 13h1v1H2Zm1 0h1v1H3Zm1 0h1v1H4Zm2 0h1v1H6Zm1 0h1v1H7Zm4 0h1v1h-1Zm1 0h1v1h-1Zm1 0h1v1h-1Zm4 0h1v1h-1Zm2 0h1v1h-1Zm1 0h1v1h-1Zm1 0h1v1h-1Zm5 0h1v1h-1Zm1 0h1v1h-1Zm3 0h1v1h-1ZM2 14h1v1H2Zm1 0h1v1H3Zm3 0h1v1H6Zm1 0h1v1H7Zm1 0h1v1H8Zm1 0h1v1H9Zm1 0h1v1h-1Zm1 0h1v1h-1Zm1 0h1v1h-1Zm1 0h1v1h-1Zm1 0h1v1h-1Zm4 0h1v1h-1Zm1 0h1v1h-1Zm2 0h1v1h-1Zm3 0h1v1h-1Zm3 0h1v1h-1Zm2 0h1v1h-1ZM2 15h1v1H2Zm1 0h1v1H3Zm3 0h1v1H6Zm3 0h1v1H9Zm1 0h1v1h-1Zm4 0h1v1h-1Zm1 0h1v1h-1Zm2 0h1v1h-1Zm1 0h1v1h-1Zm1 0h1v1h-1Zm1 0h1v1h-1Zm4 0h1v1h-1Zm1 0h1v1h-1Zm2 0h1v1h-1Zm2 0h1v1h-1Zm1 0h1v1h-1ZM3 16h1v1H3Zm1 0h1v1H4Zm1 0h1v1H5Zm1 0h1v1H6Zm2 0h1v1H8Zm1 0h1v1H9Zm1 0h1v1h-1Zm1 0h1v1h-1Zm1 0h1v1h-1Zm2 0h1v1h-1Zm2 0h1v1h-1Zm1 0h1v1h-1Zm1 0h1v1h-1Zm6 0h1v1h-1Zm1 0h1v1h-1Zm1 0h1v1h-1Zm1 0h1v1h-1Zm2 0h1v1h-1Zm1 0h1v1h-1ZM2 17h1v1H2Zm1 0h1v1H3Zm2 0h1v1H5Zm1 0h1v1H6Zm1 0h1v1H7Zm3 0h1v1h-1Zm3 0h1v1h-1Zm2 0h1v1h-1Zm1 0h1v1h-1Zm2 0h1v1h-1Zm1 0h1v1h-1Zm1 0h1v1h-1Zm1 0h1v1h-1Zm4 0h1v1h-1Zm1 0h1v1h-1Zm1 0h1v1h-1ZM3 18h1v1H3Zm1 0h1v1H4Zm1 0h1v1H5Zm1 0h1v1H6Zm1 0h1v1H7Zm1 0h1v1H8Zm1 0h1v1H9Zm4 0h1v1h-1Zm1 0h1v1h-1Zm2 0h1v1h-1Zm1 0h1v1h-1Zm2 0h1v1h-1Zm1 0h1v1h-1Zm4 0h1v1h-1Zm1 0h1v1h-1Zm2 0h1v1h-1Zm2 0h1v1h-1Zm1 0h1v1h-1ZM3 19h1v1H3Zm4 0h1v1H7Zm2 0h1v1H9Zm2 0h1v1h-1Zm5 0h1v1h-1Zm1 0h1v1h-1Zm3 0h1v1h-1Zm4 0h1v1h-1Zm1 0h1v1h-1Zm4 0h1v1h-1Zm1 0h1v1h-1ZM2 20h1v1H2Zm2 0h1v1H4Zm3 0h1v1H7Zm1 0h1v1H8Zm3 0h1v1h-1Zm2 0h1v1h-1Zm1 0h1v1h-1Zm1 0h1v1h-1Zm7 0h1v1h-1Zm2 0h1v1h-1Zm2 0h1v1h-1Zm1 0h1v1h-1Zm2 0h1v1h-1Zm1 0h1v1h-1ZM3 21h1v1H3Zm1 0h1v1H4Zm3 0h1v1H7Zm2 0h1v1H9Zm5 0h1v1h-1Zm3 0h1v1h-1Zm2 0h1v1h-1Zm1 0h1v1h-1Zm1 0h1v1h-1Zm1 0h1v1h-1Zm1 0h1v1h-1Zm1 0h1v1h-1Zm3 0h1v1h-1Zm3 0h1v1h-1ZM2 22h1v1H2Zm3 0h1v1H5Zm1 0h1v1H6Zm2 0h1v1H8Zm3 0h1v1h-1Zm1 0h1v1h-1Zm1 0h1v1h-1Zm5 0h1v1h-1Zm1 0h1v1h-1Zm1 0h1v1h-1Zm2 0h1v1h-1Zm1 0h1v1h-1Zm1 0h1v1h-1Zm1 0h1v1h-1Zm1 0h1v1h-1Zm3 0h1v1h-1Zm1 0h1v1h-1Zm-20 1h1v1h-1Zm1 0h1v1h-1Zm2 0h1v1h-1Zm1 0h1v1h-1Zm1 0h1v1h-1Zm2 0h1v1h-1Zm1 0h1v1h-1Zm1 0h1v1h-1Zm1 0h1v1h-1Zm2 0h1v1h-1Zm4 0h1v1h-1Zm2 0h1v1h-1Zm1 0h1v1h-1Zm1 0h1v1h-1ZM2 24h1v1H2Zm1 0h1v1H3Zm1 0h1v1H4Zm1 0h1v1H5Zm1 0h1v1H6Zm1 0h1v1H7Zm1 0h1v1H8Zm5 0h1v1h-1Zm3 0h1v1h-1Zm1 0h1v1h-1Zm1 0h1v1h-1Zm3 0h1v1h-1Zm1 0h1v1h-1Zm2 0h1v1h-1Zm2 0h1v1h-1Zm3 0h1v1h-1Zm1 0h1v1h-1ZM2 25h1v1H2Zm6 0h1v1H8Zm3 0h1v1h-1Zm4 0h1v1h-1Zm1 0h1v1h-1Zm2 0h1v1h-1Zm1 0h1v1h-1Zm1 0h1v1h-1Zm1 0h1v1h-1Zm1 0h1v1h-1Zm4 0h1v1h-1Zm1 0h1v1h-1Zm2 0h1v1h-1ZM2 26h1v1H2Zm2 0h1v1H4Zm1 0h1v1H5Zm1 0h1v1H6Zm2 0h1v1H8Zm2 0h1v1h-1Zm1 0h1v1h-1Zm2 0h1v1h-1Zm3 0h1v1h-1Zm1 0h1v1h-1Zm3 0h1v1h-1Zm2 0h1v1h-1Zm1 0h1v1h-1Zm1 0h1v1h-1Zm1 0h1v1h-1Zm1 0h1v1h-1Zm1 0h1v1h-1Zm2 0h1v1h-1ZM2 27h1v1H2Zm2 0h1v1H4Zm1 0h1v1H5Zm1 0h1v1H6Zm2 0h1v1H8Zm3 0h1v1h-1Zm2 0h1v1h-1Zm1 0h1v1h-1Zm1 0h1v1h-1Zm1 0h1v1h-1Zm1 0h1v1h-1Zm4 0h1v1h-1Zm1 0h1v1h-1Zm1 0h1v1h-1Zm3 0h1v1h-1ZM2 28h1v1H2Zm2 0h1v1H4Zm1 0h1v1H5Zm1 0h1v1H6Zm2 0h1v1H8Zm2 0h1v1h-1Zm2 0h1v1h-1Zm3 0h1v1h-1Zm1 0h1v1h-1Zm3 0h1v1h-1Zm2 0h1v1h-1Zm2 0h1v1h-1Zm3 0h1v1h-1Zm1 0h1v1h-1Zm3 0h1v1h-1ZM2 29h1v1H2Zm6 0h1v1H8Zm6 0h1v1h-1Zm1 0h1v1h-1Zm2 0h1v1h-1Zm4 0h1v1h-1Zm1 0h1v1h-1Zm1 0h1v1h-1Zm3 0h1v1h-1Zm1 0h1v1h-1Zm2 0h1v1h-1ZM2 30h1v1H2Zm1 0h1v1H3Zm1 0h1v1H4Zm1 0h1v1H5Zm1 0h1v1H6Zm1 0h1v1H7Zm1 0h1v1H8Zm2 0h1v1h-1Zm1 0h1v1h-1Zm3 0h1v1h-1Zm2 0h1v1h-1Zm2 0h1v1h-1Zm4 0h1v1h-1Zm3 0h1v1h-1Zm1 0h1v1h-1Zm1 0h1v1h-1Zm2 0h1v1h-1Zm1 0h1v1h-1Z"/></svg>