<svg viewBox="0 0 29 29" xmlns="http://www.w3.org/2000/svg"><path d="M2 2h1v1H2Zm1 0h1v1H3Zm1 0h1v1H4Zm1 0h1v1H5Zm1 0h1v1H6Zm1 0h1v1H7Zm1 0h1v1H8Zm2 0h1v1h-1Zm1 0h1v1h-1Zm3 0h1v1h-1Zm1 0h1v1h-1Zm1 0h1v1h-1Zm1 0h1v1h-1Zm3 0h1v1h-1Zm1 0h1v1h-1Zm1 0h1v1h-1Zm1 0h1v1h-1Zm1 0h1v1h-1Zm1 0h1v1h-1Zm1 0h1v1h-1ZM2 3h1v1H2Zm6 0h1v1H8Zm6 0h1v1h-1Zm3 0h1v1h-1Zm3 0h1v1h-1Zm6 0h1v1h-1ZM2 4h1v1H2Zm2 0h1v1H4Zm1 0h1v1H5Zm1 0h1v1H6Zm2 0h1v1H8Zm2 0h1v1h-1Zm2 0h1v1h-1Zm2 0h1v1h-1Zm1 0h1v1h-1Zm5 0h1v1h-1Zm2 0h1v1h-1Zm1 0h1v1h-1Zm1 0h1v1h-1Zm2 0h1v1h-1ZM2 5h1v1H2Zm2 0h1v1H4Zm1 0h1v1H5Zm1 0h1v1H6Zm2 0h1v1H8Zm3 0h1v1h-1Zm1 0h1v1h-1Zm2 0h1v1h-1Zm3 0h1v1h-1Zm3 0h1v1h-1Zm2 0h1v1h-1Zm1 0h1v1h-1Zm1 0h1v1h-1Zm2 0h1v1h-1ZM2 6h1v1H2Zm2 0h1v1H4Zm1 0h1v1H5Zm1 0h1v1H6Zm2 0h1v1H8Zm6 0h1v1h-1Zm3 0h1v1h-1Zm1 0h1v1h-1Zm2 0h1v1h-1Zm2 0h1v1h-1Zm1 0h1v1h-1Zm1 0h1v1h-1Zm2 0h1v1h-1ZM2 7h1v1H2Zm6 0h1v1H8Zm2 0h1v1h-1Zm2 0h1v1h-1Zm3 0h1v1h-1Zm1 0h1v1h-1Zm2 0h1v1h-1Zm2 0h1v1h-1Zm6 0h1v1h-1ZM2 8h1v1H2Zm1 0h1v1H3Zm1 0h1v1H4Zm1 0h1v1H5Zm1 0h1v1H6Zm1 0h1v1H7Zm1 0h1v1H8Zm2 0h1v1h-1Zm2 0h1v1h-1Zm2 0h1v1h-1Zm2 0h1v1h-1Zm2 0h1v1h-1Zm2 0h1v1h-1Zm1 0h1v1h-1Zm1 0h1v1h-1Zm1 0h1v1h-1Zm1 0h1v1h-1Zm1 0h1v1h-1Zm1 0h1v1h-1ZM11 9h1v1h-1Zm2 0h1v1h-1Zm2 0h1v1h-1Zm2 0h1v1h-1Zm1 0h1v1h-1ZM2 10h1v1H2Zm2 0h1v1H4Zm4 0h1v1H8Zm1 0h1v1H9Zm2 0h1v1h-1Zm3 0h1v1h-1Zm1 0h1v1h-1Zm2 0h1v1h-1Zm4 0h1v1h-1Zm3 0h1v1h-1Zm2 0h1v1h-1ZM3 11h1v1H3Zm2 0h1v1H5Zm1 0h1v1H6Zm1 0h1v1H7Zm2 0h1v1H9Zm2 0h1v1h-1Zm2 0h1v1h-1Zm1 0h1v1h-1Zm3 0h1v1h-1Zm2 0h1v1h-1Zm1 0h1v1h-1Zm3 0h1v1h-1Zm1 0h1v1h-1Zm2 0h1v1h-1ZM4 12h1v1H4Zm1 0h1v1H5Zm1 0h1v1H6Zm1 0h1v1H7Zm1 0h1v1H8Zm1 0h1v1H9Zm3 0h1v1h-1Zm1 0h1v1h-1Zm1 0h1v1h-1Zm1 0h1v1h-1Zm1 0h1v1h-1Zm1 0h1v1h-1Zm1 0h1v1h-1Zm1 0h1v1h-1Zm1 0h1v1h-1Zm2 0h1v1h-1Zm1 0h1v1h-1Zm1 0h1v1h-1Zm2 0h1v1h-1ZM2 13h1v1H2Zm3 0h1v1H5Zm2 0h1v1H7Zm2 0h1v1H9Zm1 0h1v1h-1Zm6 0h1v1h-1Zm1 0h1v1h-1Zm1 0h1v1h-1Zm1 0h1v1h-1Zm2 0h1v1h-1Zm4 0h1v1h-1ZM2 14h1v1H2Zm3 0h1v1H5Zm1 0h1v1H6Zm1 0h1v1H7Zm1 0h1v1H8Zm7 0h1v1h-1Zm1 0h1v1h-1Zm1 0h1v1h-1Zm2 0h1v1h-1Zm1 0h1v1h-1Zm6 0h1v1h-1ZM6 15h1v1H6Zm3 0h1v1H9Zm2 0h1v1h-1Zm4 0h1v1h-1Zm1 0h1v1h-1Zm1 0h1v1h-1Zm2 0h1v1h-1Zm1 0h1v1h-1Zm4 0h1v1h-1Zm2 0h1v1h-1ZM2 16h1v1H2Zm1 0h1v1H3Zm1 0h1v1H4Zm4 0h1v1H8Zm1 0h1v1H9Zm1 0h1v1h-1Zm2 0h1v1h-1Zm1 0h1v1h-1Zm4 0h1v1h-1Zm2 0h1v1h-1Zm1 0h1v1h-1Zm2 0h1v1h-1Zm1 0h1v1h-1Zm3 0h1v1h-1ZM5 17h1v1H5Zm2 0h1v1H7Zm2 0h1v1H9Zm1 0h1v1h-1Zm1 0h1v1h-1Zm4 0h1v1h-1Zm3 0h1v1h-1Zm2 0h1v1h-1Zm1 0h1v1h-1ZM2 18h1v1H2Zm1 0h1v1H3Zm1 0h1v1H4Zm1 0h1v1H5Zm1 0h1v1H6Zm1 0h1v1H7Zm1 0h1v1H8Zm4 0h1v1h-1Zm1 0h1v1h-1Zm1 0h1v1h-1Zm1 0h1v1h-1Zm2 0h1v1h-1Zm1 0h1v1h-1Zm1 0h1v1h-1Zm1 0h1v1h-1Zm1 0h1v1h-1Zm1 0h1v1h-1Zm1 0h1v1h-1Zm3 0h1v1h-1Zm-16 1h1v1h-1Zm1 0h1v1h-1Zm3 0h1v1h-1Zm3 0h1v1h-1Zm1 0h1v1h-1Zm4 0h1v1h-1Zm2 0h1v1h-1Zm1 0h1v1h-1Zm1 0h1v1h-1ZM2 20h1v1H2Zm1 0h1v1H3Zm1 0h1v1H4Zm1 0h1v1H5Zm1 0h1v1H6Zm1 0h1v1H7Zm1 0h1v1H8Zm2 0h1v1h-1Zm1 0h1v1h-1Zm3 0h1v1h-1Zm1 0h1v1h-1Zm1 0h1v1h-1Zm2 0h1v1h-1Zm2 0h1v1h-1Zm2 0h1v1h-1Zm4 0h1v1h-1ZM2 21h1v1H2Zm6 0h1v1H8Zm4 0h1v1h-1Zm1 0h1v1h-1Zm1 0h1v1h-1Zm2 0h1v1h-1Zm2 0h1v1h-1Zm4 0h1v1h-1ZM2 22h1v1H2Zm2 0h1v1H4Zm1 0h1v1H5Zm1 0h1v1H6Zm2 0h1v1H8Zm3 0h1v1h-1Zm4 0h1v1h-1Zm1 0h1v1h-1Zm1 0h1v1h-1Zm1 0h1v1h-1Zm1 0h1v1h-1Zm1 0h1v1h-1Zm1 0h1v1h-1Zm1 0h1v1h-1Zm3 0h1v1h-1Zm1 0h1v1h-1ZM2 23h1v1H2Zm2 0h1v1H4Zm1 0h1v1H5Zm1 0h1v1H6Zm2 0h1v1H8Zm3 0h1v1h-1Zm4 0h1v1h-1Zm1 0h1v1h-1Zm5 0h1v1h-1Zm1 0h1v1h-1Zm3 0h1v1h-1ZM2 24h1v1H2Zm2 0h1v1H4Zm1 0h1v1H5Zm1 0h1v1H6Zm2 0h1v1H8Zm2 0h1v1h-1Zm2 0h1v1h-1Zm1 0h1v1h-1Zm5 0h1v1h-1Zm3 0h1v1h-1Zm1 0h1v1h-1Zm2 0h1v1h-1Zm1 0h1v1h-1Zm1 0h1v1h-1ZM2 25h1v1H2Zm6 0h1v1H8Zm3 0h1v1h-1Zm1 0h1v1h-1Zm3 0h1v1h-1Zm2 0h1v1h-1Zm1 0h1v1h-1Zm3 0h1v1h-1ZM2 26h1v1H2Zm1 0h1v1H3Zm1 0h1v1H4Zm1 0h1v1H5Zm1 0h1v1H6Zm1 0h1v1H7Zm1 0h1v1H8Zm2 0h1v1h-1Zm1 0h1v1h-1Zm2 0h1v1h-1Zm1 0h1v1h-1Zm1 0h1v1h-1Zm2 0h1v1h-1Zm1 0h1v1h-1Zm4 0h1v1h-1Zm4 0h1v1h-1Z"/></svg>