<svg viewBox="0 0 65 65" xmlns="http://www.w3.org/2000/svg"><path d="M2 2h1v1H2Zm1 0h1v1H3Zm1 0h1v1H4Zm1 0h1v1H5Zm1 0h1v1H6Zm1 0h1v1H7Zm1 0h1v1H8Zm2 0h1v1h-1Zm4 0h1v1h-1Zm2 0h1v1h-1Zm1 0h1v1h-1Zm5 0h1v1h-1Zm1 0h1v1h-1Zm4 0h1v1h-1Zm2 0h1v1h-1Zm2 0h1v1h-1Zm1 0h1v1h-1Zm5 0h1v1h-1Zm1 0h1v1h-1Zm1 0h1v1h-1Zm3 0h1v1h-1Zm1 0h1v1h-1Zm1 0h1v1h-1Zm5 0h1v1h-1Zm1 0h1v1h-1Zm1 0h1v1h-1Zm2 0h1v1h-1Zm1 0h1v1h-1Zm2 0h1v1h-1Zm1 0h1v1h-1Zm1 0h1v1h-1Zm1 0h1v1h-1Zm1 0h1v1h-1Zm1 0h1v1h-1Zm1 0h1v1h-1ZM2 3h1v1H2Zm6 0h1v1H8Zm2 0h1v1h-1Zm2 0h1v1h-1Zm1 0h1v1h-1Zm2 0h1v1h-1Zm3 0h1v1h-1Zm1 0h1v1h-1Zm1 0h1v1h-1Zm5 0h1v1h-1Zm1 0h1v1h-1Zm3 0h1v1h-1Zm2 0h1v1h-1Zm1 0h1v1h-1Zm1 0h1v1h-1Zm1 0h1v1h-1Zm2 0h1v1h-1Zm1 0h1v1h-1Zm7 0h1v1h-1Zm1 0h1v1h-1Zm1 0h1v1h-1Zm2 0h1v1h-1Zm2 0h1v1h-1Zm1 0h1v1h-1Zm2 0h1v1h-1Zm1 0h1v1h-1Zm2 0h1v1h-1Zm6 0h1v1h-1ZM2 4h1v1H2Zm2 0h1v1H4Zm1 0h1v1H5Zm1 0h1v1H6Zm2 0h1v1H8Zm3 0h1v1h-1Zm1 0h1v1h-1Zm3 0h1v1h-1Zm1 0h1v1h-1Zm4 0h1v1h-1Zm2 0h1v1h-1Zm4 0h1v1h-1Zm1 0h1v1h-1Zm3 0h1v1h-1Zm1 0h1v1h-1Zm3 0h1v1h-1Zm1 0h1v1h-1Zm1 0h1v1h-1Zm3 0h1v1h-1Zm4 0h1v1h-1Zm1 0h1v1h-1Zm1 0h1v1h-1Zm1 0h1v1h-1Zm2 0h1v1h-1Zm1 0h1v1h-1Zm1 0h1v1h-1Zm1 0h1v1h-1Zm1 0h1v1h-1Zm1 0h1v1h-1Zm1 0h1v1h-1Zm2 0h1v1h-1Zm2 0h1v1h-1Zm1 0h1v1h-1Zm1 0h1v1h-1Zm2 0h1v1h-1ZM2 5h1v1H2Zm2 0h1v1H4Zm1 0h1v1H5Zm1 0h1v1H6Zm2 0h1v1H8Zm2 0h1v1h-1Zm1 0h1v1h-1Zm1 0h1v1h-1Zm1 0h1v1h-1Zm1 0h1v1h-1Zm1 0h1v1h-1Zm2 0h1v1h-1Zm4 0h1v1h-1Zm1 0h1v1h-1Zm1 0h1v1h-1Zm3 0h1v1h-1Zm1 0h1v1h-1Zm3 0h1v1h-1Zm2 0h1v1h-1Zm6 0h1v1h-1Zm5 0h1v1h-1Zm2 0h1v1h-1Zm2 0h1v1h-1Zm3 0h1v1h-1Zm1 0h1v1h-1Zm1 0h1v1h-1Zm2 0h1v1h-1Zm2 0h1v1h-1Zm2 0h1v1h-1Zm1 0h1v1h-1Zm1 0h1v1h-1Zm2 0h1v1h-1ZM2 6h1v1H2Zm2 0h1v1H4Zm1 0h1v1H5Zm1 0h1v1H6Zm2 0h1v1H8Zm4 0h1v1h-1Zm3 0h1v1h-1Zm2 0h1v1h-1Zm4 0h1v1h-1Zm3 0h1v1h-1Zm1 0h1v1h-1Zm1 0h1v1h-1Zm4 0h1v1h-1Zm1 0h1v1h-1Zm1 0h1v1h-1Zm1 0h1v1h-1Zm1 0h1v1h-1Zm1 0h1v1h-1Zm4 0h1v1h-1Zm1 0h1v1h-1Zm1 0h1v1h-1Zm1 0h1v1h-1Zm5 0h1v1h-1Zm2 0h1v1h-1Zm2 0h1v1h-1Zm1 0h1v1h-1Zm1 0h1v1h-1Zm3 0h1v1h-1Zm2 0h1v1h-1Zm1 0h1v1h-1Zm1 0h1v1h-1Zm2 0h1v1h-1ZM2 7h1v1H2Zm6 0h1v1H8Zm3 0h1v1h-1Zm1 0h1v1h-1Zm1 0h1v1h-1Zm1 0h1v1h-1Zm1 0h1v1h-1Zm1 0h1v1h-1Zm1 0h1v1h-1Zm1 0h1v1h-1Zm4 0h1v1h-1Zm2 0h1v1h-1Zm3 0h1v1h-1Zm1 0h1v1h-1Zm2 0h1v1h-1Zm4 0h1v1h-1Zm2 0h1v1h-1Zm1 0h1v1h-1Zm1 0h1v1h-1Zm1 0h1v1h-1Zm1 0h1v1h-1Zm2 0h1v1h-1Zm2 0h1v1h-1Zm2 0h1v1h-1Zm3 0h1v1h-1Zm1 0h1v1h-1Zm1 0h1v1h-1Zm1 0h1v1h-1Zm4 0h1v1h-1Zm6 0h1v1h-1ZM2 8h1v1H2Zm1 0h1v1H3Zm1 0h1v1H4Zm1 0h1v1H5Zm1 0h1v1H6Zm1 0h1v1H7Zm1 0h1v1H8Zm2 0h1v1h-1Zm2 0h1v1h-1Zm2 0h1v1h-1Zm2 0h1v1h-1Zm2 0h1v1h-1Zm2 0h1v1h-1Zm2 0h1v1h-1Zm2 0h1v1h-1Zm2 0h1v1h-1Zm2 0h1v1h-1Zm2 0h1v1h-1Zm2 0h1v1h-1Zm2 0h1v1h-1Zm2 0h1v1h-1Zm2 0h1v1h-1Zm2 0h1v1h-1Zm2 0h1v1h-1Zm2 0h1v1h-1Zm2 0h1v1h-1Zm2 0h1v1h-1Zm2 0h1v1h-1Zm2 0h1v1h-1Zm2 0h1v1h-1Zm2 0h1v1h-1Zm1 0h1v1h-1Zm1 0h1v1h-1Zm1 0h1v1h-1Zm1 0h1v1h-1Zm1 0h1v1h-1Zm1 0h1v1h-1ZM10 9h1v1h-1Zm1 0h1v1h-1Zm3 0h1v1h-1Zm1 0h1v1h-1Zm1 0h1v1h-1Zm1 0h1v1h-1Zm1 0h1v1h-1Zm4 0h1v1h-1Zm4 0h1v1h-1Zm3 0h1v1h-1Zm1 0h1v1h-1Zm4 0h1v1h-1Zm1 0h1v1h-1Zm1 0h1v1h-1Zm1 0h1v1h-1Zm1 0h1v1h-1Zm1 0h1v1h-1Zm2 0h1v1h-1Zm3 0h1v1h-1Zm1 0h1v1h-1Zm1 0h1v1h-1Zm3 0h1v1h-1Zm1 0h1v1h-1Zm2 0h1v1h-1ZM2 10h1v1H2Zm2 0h1v1H4Zm1 0h1v1H5Zm2 0h1v1H7Zm1 0h1v1H8Zm1 0h1v1H9Zm3 0h1v1h-1Zm1 0h1v1h-1Zm1 0h1v1h-1Zm2 0h1v1h-1Zm2 0h1v1h-1Zm1 0h1v1h-1Zm1 0h1v1h-1Zm4 0h1v1h-1Zm2 0h1v1h-1Zm3 0h1v1h-1Zm1 0h1v1h-1Zm1 0h1v1h-1Zm1 0h1v1h-1Zm1 0h1v1h-1Zm1 0h1v1h-1Zm6 0h1v1h-1Zm1 0h1v1h-1Zm1 0h1v1h-1Zm2 0h1v1h-1Zm3 0h1v1h-1Zm2 0h1v1h-1Zm2 0h1v1h-1Zm1 0h1v1h-1Zm1 0h1v1h-1Zm3 0h1v1h-1Zm3 0h1v1h-1Zm2 0h1v1h-1Zm1 0h1v1h-1ZM3 11h1v1H3Zm1 0h1v1H4Zm3 0h1v1H7Zm3 0h1v1h-1Zm1 0h1v1h-1Zm2 0h1v1h-1Zm4 0h1v1h-1Zm6 0h1v1h-1Zm2 0h1v1h-1Zm1 0h1v1h-1Zm1 0h1v1h-1Zm2 0h1v1h-1Zm1 0h1v1h-1Zm1 0h1v1h-1Zm3 0h1v1h-1Zm1 0h1v1h-1Zm4 0h1v1h-1Zm2 0h1v1h-1Zm1 0h1v1h-1Zm2 0h1v1h-1Zm2 0h1v1h-1Zm5 0h1v1h-1Zm2 0h1v1h-1Zm2 0h1v1h-1Zm1 0h1v1h-1Zm1 0h1v1h-1Zm3 0h1v1h-1Zm1 0h1v1h-1ZM4 12h1v1H4Zm1 0h1v1H5Zm1 0h1v1H6Zm2 0h1v1H8Zm2 0h1v1h-1Zm2 0h1v1h-1Zm1 0h1v1h-1Zm1 0h1v1h-1Zm2 0h1v1h-1Zm5 0h1v1h-1Zm2 0h1v1h-1Zm1 0h1v1h-1Zm1 0h1v1h-1Zm4 0h1v1h-1Zm1 0h1v1h-1Zm1 0h1v1h-1Zm2 0h1v1h-1Zm1 0h1v1h-1Zm1 0h1v1h-1Zm1 0h1v1h-1Zm1 0h1v1h-1Zm5 0h1v1h-1Zm2 0h1v1h-1Zm5 0h1v1h-1Zm3 0h1v1h-1Zm1 0h1v1h-1Zm1 0h1v1h-1Zm1 0h1v1h-1Zm1 0h1v1h-1Zm2 0h1v1h-1Zm2 0h1v1h-1Zm1 0h1v1h-1ZM3 13h1v1H3Zm1 0h1v1H4Zm3 0h1v1H7Zm3 0h1v1h-1Zm1 0h1v1h-1Zm2 0h1v1h-1Zm1 0h1v1h-1Zm3 0h1v1h-1Zm1 0h1v1h-1Zm3 0h1v1h-1Zm2 0h1v1h-1Zm2 0h1v1h-1Zm1 0h1v1h-1Zm1 0h1v1h-1Zm1 0h1v1h-1Zm2 0h1v1h-1Zm1 0h1v1h-1Zm3 0h1v1h-1Zm2 0h1v1h-1Zm2 0h1v1h-1Zm1 0h1v1h-1Zm4 0h1v1h-1Zm2 0h1v1h-1Zm1 0h1v1h-1Zm2 0h1v1h-1Zm1 0h1v1h-1Zm2 0h1v1h-1Zm7 0h1v1h-1Zm1 0h1v1h-1Zm1 0h1v1h-1Zm1 0h1v1h-1ZM3 14h1v1H3Zm3 0h1v1H6Zm1 0h1v1H7Zm1 0h1v1H8Zm1 0h1v1H9Zm1 0h1v1h-1Zm1 0h1v1h-1Zm2 0h1v1h-1Zm1 0h1v1h-1Zm3 0h1v1h-1Zm1 0h1v1h-1Zm1 0h1v1h-1Zm1 0h1v1h-1Zm2 0h1v1h-1Zm1 0h1v1h-1Zm1 0h1v1h-1Zm1 0h1v1h-1Zm1 0h1v1h-1Zm4 0h1v1h-1Zm5 0h1v1h-1Zm2 0h1v1h-1Zm1 0h1v1h-1Zm1 0h1v1h-1Zm1 0h1v1h-1Zm4 0h1v1h-1Zm5 0h1v1h-1Zm1 0h1v1h-1Zm1 0h1v1h-1Zm1 0h1v1h-1Zm1 0h1v1h-1Zm2 0h1v1h-1Zm4 0h1v1h-1Zm1 0h1v1h-1Zm1 0h1v1h-1Zm1 0h1v1h-1ZM3 15h1v1H3Zm2 0h1v1H5Zm1 0h1v1H6Zm3 0h1v1H9Zm4 0h1v1h-1Zm3 0h1v1h-1Zm4 0h1v1h-1Zm1 0h1v1h-1Zm3 0h1v1h-1Zm1 0h1v1h-1Zm1 0h1v1h-1Zm5 0h1v1h-1Zm1 0h1v1h-1Zm3 0h1v1h-1Zm2 0h1v1h-1Zm2 0h1v1h-1Zm1 0h1v1h-1Zm5 0h1v1h-1Zm2 0h1v1h-1Zm2 0h1v1h-1Zm1 0h1v1h-1Zm1 0h1v1h-1Zm1 0h1v1h-1Zm3 0h1v1h-1Zm6 0h1v1h-1ZM3 16h1v1H3Zm1 0h1v1H4Zm3 0h1v1H7Zm1 0h1v1H8Zm4 0h1v1h-1Zm3 0h1v1h-1Zm1 0h1v1h-1Zm1 0h1v1h-1Zm1 0h1v1h-1Zm1 0h1v1h-1Zm3 0h1v1h-1Zm1 0h1v1h-1Zm1 0h1v1h-1Zm1 0h1v1h-1Zm2 0h1v1h-1Zm1 0h1v1h-1Zm2 0h1v1h-1Zm6 0h1v1h-1Zm2 0h1v1h-1Zm1 0h1v1h-1Zm1 0h1v1h-1Zm1 0h1v1h-1Zm1 0h1v1h-1Zm3 0h1v1h-1Zm2 0h1v1h-1Zm4 0h1v1h-1Zm1 0h1v1h-1Zm1 0h1v1h-1Zm2 0h1v1h-1Zm1 0h1v1h-1Zm2 0h1v1h-1Zm1 0h1v1h-1Zm2 0h1v1h-1ZM4 17h1v1H4Zm1 0h1v1H5Zm1 0h1v1H6Zm1 0h1v1H7Zm4 0h1v1h-1Zm1 0h1v1h-1Zm7 0h1v1h-1Zm1 0h1v1h-1Zm1 0h1v1h-1Zm3 0h1v1h-1Zm3 0h1v1h-1Zm2 0h1v1h-1Zm2 0h1v1h-1Zm1 0h1v1h-1Zm2 0h1v1h-1Zm1 0h1v1h-1Zm1 0h1v1h-1Zm2 0h1v1h-1Zm1 0h1v1h-1Zm1 0h1v1h-1Zm1 0h1v1h-1Zm1 0h1v1h-1Zm1 0h1v1h-1Zm1 0h1v1h-1Zm2 0h1v1h-1Zm1 0h1v1h-1Zm1 0h1v1h-1Zm4 0h1v1h-1Zm4 0h1v1h-1Zm1 0h1v1h-1ZM2 18h1v1H2Zm1 0h1v1H3Zm1 0h1v1H4Zm2 0h1v1H6Zm2 0h1v1H8Zm1 0h1v1H9Zm1 0h1v1h-1Zm1 0h1v1h-1Zm1 0h1v1h-1Zm1 0h1v1h-1Zm2 0h1v1h-1Zm1 0h1v1h-1Zm1 0h1v1h-1Zm1 0h1v1h-1Zm1 0h1v1h-1Zm3 0h1v1h-1Zm2 0h1v1h-1Zm1 0h1v1h-1Zm3 0h1v1h-1Zm2 0h1v1h-1Zm2 0h1v1h-1Zm4 0h1v1h-1Zm3 0h1v1h-1Zm1 0h1v1h-1Zm3 0h1v1h-1Zm2 0h1v1h-1Zm1 0h1v1h-1Zm2 0h1v1h-1Zm1 0h1v1h-1Zm8 0h1v1h-1Zm1 0h1v1h-1Zm3 0h1v1h-1Zm1 0h1v1h-1ZM3 19h1v1H3Zm1 0h1v1H4Zm9 0h1v1h-1Zm1 0h1v1h-1Zm1 0h1v1h-1Zm1 0h1v1h-1Zm1 0h1v1h-1Zm1 0h1v1h-1Zm2 0h1v1h-1Zm1 0h1v1h-1Zm2 0h1v1h-1Zm1 0h1v1h-1Zm1 0h1v1h-1Zm3 0h1v1h-1Zm2 0h1v1h-1Zm1 0h1v1h-1Zm1 0h1v1h-1Zm1 0h1v1h-1Zm1 0h1v1h-1Zm1 0h1v1h-1Zm1 0h1v1h-1Zm2 0h1v1h-1Zm4 0h1v1h-1Zm1 0h1v1h-1Zm3 0h1v1h-1Zm1 0h1v1h-1Zm1 0h1v1h-1Zm1 0h1v1h-1Zm1 0h1v1h-1Zm3 0h1v1h-1Zm1 0h1v1h-1Zm1 0h1v1h-1Zm3 0h1v1h-1Zm2 0h1v1h-1ZM7 20h1v1H7Zm1 0h1v1H8Zm2 0h1v1h-1Zm1 0h1v1h-1Zm2 0h1v1h-1Zm3 0h1v1h-1Zm1 0h1v1h-1Zm1 0h1v1h-1Zm5 0h1v1h-1Zm2 0h1v1h-1Zm2 0h1v1h-1Zm1 0h1v1h-1Zm1 0h1v1h-1Zm1 0h1v1h-1Zm1 0h1v1h-1Zm2 0h1v1h-1Zm7 0h1v1h-1Zm7 0h1v1h-1Zm1 0h1v1h-1Zm1 0h1v1h-1Zm4 0h1v1h-1Zm3 0h1v1h-1Zm1 0h1v1h-1Zm1 0h1v1h-1Zm1 0h1v1h-1Zm1 0h1v1h-1Zm1 0h1v1h-1Zm1 0h1v1h-1ZM2 21h1v1H2Zm1 0h1v1H3Zm1 0h1v1H4Zm1 0h1v1H5Zm5 0h1v1h-1Zm1 0h1v1h-1Zm3 0h1v1h-1Zm1 0h1v1h-1Zm1 0h1v1h-1Zm1 0h1v1h-1Zm3 0h1v1h-1Zm3 0h1v1h-1Zm6 0h1v1h-1Zm2 0h1v1h-1Zm2 0h1v1h-1Zm1 0h1v1h-1Zm1 0h1v1h-1Zm1 0h1v1h-1Zm1 0h1v1h-1Zm1 0h1v1h-1Zm2 0h1v1h-1Zm1 0h1v1h-1Zm2 0h1v1h-1Zm2 0h1v1h-1Zm4 0h1v1h-1Zm9 0h1v1h-1Zm1 0h1v1h-1Zm2 0h1v1h-1ZM2 22h1v1H2Zm1 0h1v1H3Zm4 0h1v1H7Zm1 0h1v1H8Zm1 0h1v1H9Zm4 0h1v1h-1Zm3 0h1v1h-1Zm1 0h1v1h-1Zm1 0h1v1h-1Zm3 0h1v1h-1Zm4 0h1v1h-1Zm3 0h1v1h-1Zm1 0h1v1h-1Zm2 0h1v1h-1Zm1 0h1v1h-1Zm5 0h1v1h-1Zm4 0h1v1h-1Zm1 0h1v1h-1Zm2 0h1v1h-1Zm3 0h1v1h-1Zm1 0h1v1h-1Zm1 0h1v1h-1Zm3 0h1v1h-1Zm1 0h1v1h-1Zm1 0h1v1h-1Zm6 0h1v1h-1Zm1 0h1v1h-1ZM3 23h1v1H3Zm1 0h1v1H4Zm1 0h1v1H5Zm2 0h1v1H7Zm5 0h1v1h-1Zm1 0h1v1h-1Zm1 0h1v1h-1Zm1 0h1v1h-1Zm1 0h1v1h-1Zm3 0h1v1h-1Zm2 0h1v1h-1Zm1 0h1v1h-1Zm1 0h1v1h-1Zm1 0h1v1h-1Zm2 0h1v1h-1Zm4 0h1v1h-1Zm2 0h1v1h-1Zm7 0h1v1h-1Zm3 0h1v1h-1Zm1 0h1v1h-1Zm1 0h1v1h-1Zm1 0h1v1h-1Zm1 0h1v1h-1Zm4 0h1v1h-1Zm5 0h1v1h-1Zm1 0h1v1h-1Zm2 0h1v1h-1Zm2 0h1v1h-1Zm1 0h1v1h-1Zm1 0h1v1h-1ZM2 24h1v1H2Zm1 0h1v1H3Zm1 0h1v1H4Zm1 0h1v1H5Zm1 0h1v1H6Zm2 0h1v1H8Zm2 0h1v1h-1Zm1 0h1v1h-1Zm1 0h1v1h-1Zm6 0h1v1h-1Zm1 0h1v1h-1Zm1 0h1v1h-1Zm2 0h1v1h-1Zm1 0h1v1h-1Zm3 0h1v1h-1Zm1 0h1v1h-1Zm6 0h1v1h-1Zm1 0h1v1h-1Zm2 0h1v1h-1Zm1 0h1v1h-1Zm5 0h1v1h-1Zm1 0h1v1h-1Zm1 0h1v1h-1Zm2 0h1v1h-1Zm2 0h1v1h-1Zm1 0h1v1h-1Zm2 0h1v1h-1Zm2 0h1v1h-1Zm2 0h1v1h-1Zm4 0h1v1h-1Zm1 0h1v1h-1ZM2 25h1v1H2Zm5 0h1v1H7Zm2 0h1v1H9Zm1 0h1v1h-1Zm1 0h1v1h-1Zm4 0h1v1h-1Zm3 0h1v1h-1Zm1 0h1v1h-1Zm1 0h1v1h-1Zm2 0h1v1h-1Zm1 0h1v1h-1Zm2 0h1v1h-1Zm2 0h1v1h-1Zm1 0h1v1h-1Zm1 0h1v1h-1Zm2 0h1v1h-1Zm2 0h1v1h-1Zm1 0h1v1h-1Zm1 0h1v1h-1Zm3 0h1v1h-1Zm1 0h1v1h-1Zm1 0h1v1h-1Zm3 0h1v1h-1Zm1 0h1v1h-1Zm1 0h1v1h-1Zm1 0h1v1h-1Zm2 0h1v1h-1Zm3 0h1v1h-1Zm3 0h1v1h-1Zm2 0h1v1h-1Zm2 0h1v1h-1Zm1 0h1v1h-1Zm1 0h1v1h-1Zm1 0h1v1h-1ZM2 26h1v1H2Zm1 0h1v1H3Zm3 0h1v1H6Zm1 0h1v1H7Zm1 0h1v1H8Zm1 0h1v1H9Zm1 0h1v1h-1Zm5 0h1v1h-1Zm2 0h1v1h-1Zm2 0h1v1h-1Zm1 0h1v1h-1Zm4 0h1v1h-1Zm2 0h1v1h-1Zm3 0h1v1h-1Zm1 0h1v1h-1Zm1 0h1v1h-1Zm1 0h1v1h-1Zm2 0h1v1h-1Zm1 0h1v1h-1Zm1 0h1v1h-1Zm1 0h1v1h-1Zm1 0h1v1h-1Zm1 0h1v1h-1Zm10 0h1v1h-1Zm1 0h1v1h-1Zm1 0h1v1h-1Zm2 0h1v1h-1Zm1 0h1v1h-1Zm7 0h1v1h-1Zm1 0h1v1h-1ZM3 27h1v1H3Zm2 0h1v1H5Zm1 0h1v1H6Zm3 0h1v1H9Zm3 0h1v1h-1Zm7 0h1v1h-1Zm2 0h1v1h-1Zm2 0h1v1h-1Zm1 0h1v1h-1Zm2 0h1v1h-1Zm3 0h1v1h-1Zm1 0h1v1h-1Zm2 0h1v1h-1Zm2 0h1v1h-1Zm1 0h1v1h-1Zm3 0h1v1h-1Zm1 0h1v1h-1Zm1 0h1v1h-1Zm1 0h1v1h-1Zm6 0h1v1h-1Zm4 0h1v1h-1Zm1 0h1v1h-1Zm1 0h1v1h-1Zm6 0h1v1h-1Zm2 0h1v1h-1Zm1 0h1v1h-1ZM2 28h1v1H2Zm1 0h1v1H3Zm2 0h1v1H5Zm1 0h1v1H6Zm2 0h1v1H8Zm2 0h1v1h-1Zm2 0h1v1h-1Zm2 0h1v1h-1Zm2 0h1v1h-1Zm3 0h1v1h-1Zm2 0h1v1h-1Zm5 0h1v1h-1Zm3 0h1v1h-1Zm3 0h1v1h-1Zm4 0h1v1h-1Zm1 0h1v1h-1Zm1 0h1v1h-1Zm1 0h1v1h-1Zm1 0h1v1h-1Zm2 0h1v1h-1Zm1 0h1v1h-1Zm1 0h1v1h-1Zm2 0h1v1h-1Zm4 0h1v1h-1Zm1 0h1v1h-1Zm1 0h1v1h-1Zm1 0h1v1h-1Zm2 0h1v1h-1Zm2 0h1v1h-1Zm2 0h1v1h-1Zm1 0h1v1h-1ZM3 29h1v1H3Zm1 0h1v1H4Zm1 0h1v1H5Zm2 0h1v1H7Zm2 0h1v1H9Zm3 0h1v1h-1Zm4 0h1v1h-1Zm1 0h1v1h-1Zm1 0h1v1h-1Zm1 0h1v1h-1Zm3 0h1v1h-1Zm1 0h1v1h-1Zm1 0h1v1h-1Zm1 0h1v1h-1Zm4 0h1v1h-1Zm3 0h1v1h-1Zm2 0h1v1h-1Zm1 0h1v1h-1Zm1 0h1v1h-1Zm1 0h1v1h-1Zm2 0h1v1h-1Zm3 0h1v1h-1Zm2 0h1v1h-1Zm3 0h1v1h-1Zm1 0h1v1h-1Zm1 0h1v1h-1Zm2 0h1v1h-1Zm2 0h1v1h-1Zm3 0h1v1h-1Zm3 0h1v1h-1Zm2 0h1v1h-1Zm1 0h1v1h-1ZM2 30h1v1H2Zm1 0h1v1H3Zm2 0h1v1H5Zm1 0h1v1H6Zm1 0h1v1H7Zm1 0h1v1H8Zm1 0h1v1H9Zm1 0h1v1h-1Zm2 0h1v1h-1Zm1 0h1v1h-1Zm3 0h1v1h-1Zm6 0h1v1h-1Zm1 0h1v1h-1Zm3 0h1v1h-1Zm1 0h1v1h-1Zm1 0h1v1h-1Zm1 0h1v1h-1Zm1 0h1v1h-1Zm1 0h1v1h-1Zm1 0h1v1h-1Zm1 0h1v1h-1Zm1 0h1v1h-1Zm1 0h1v1h-1Zm1 0h1v1h-1Zm3 0h1v1h-1Zm1 0h1v1h-1Zm3 0h1v1h-1Zm3 0h1v1h-1Zm1 0h1v1h-1Zm5 0h1v1h-1Zm1 0h1v1h-1Zm1 0h1v1h-1Zm1 0h1v1h-1Zm1 0h1v1h-1Zm1 0h1v1h-1Zm1 0h1v1h-1Zm1 0h1v1h-1Zm1 0h1v1h-1ZM2 31h1v1H2Zm1 0h1v1H3Zm1 0h1v1H4Zm2 0h1v1H6Zm4 0h1v1h-1Zm3 0h1v1h-1Zm1 0h1v1h-1Zm1 0h1v1h-1Zm1 0h1v1h-1Zm1 0h1v1h-1Zm1 0h1v1h-1Zm1 0h1v1h-1Zm2 0h1v1h-1Zm6 0h1v1h-1Zm3 0h1v1h-1Zm4 0h1v1h-1Zm2 0h1v1h-1Zm1 0h1v1h-1Zm1 0h1v1h-1Zm1 0h1v1h-1Zm2 0h1v1h-1Zm1 0h1v1h-1Zm3 0h1v1h-1Zm1 0h1v1h-1Zm1 0h1v1h-1Zm1 0h1v1h-1Zm1 0h1v1h-1Zm1 0h1v1h-1Zm1 0h1v1h-1Zm2 0h1v1h-1Zm1 0h1v1h-1Zm4 0h1v1h-1Zm2 0h1v1h-1Zm1 0h1v1h-1Zm1 0h1v1h-1ZM2 32h1v1H2Zm1 0h1v1H3Zm3 0h1v1H6Zm2 0h1v1H8Zm2 0h1v1h-1Zm2 0h1v1h-1Zm1 0h1v1h-1Zm8 0h1v1h-1Zm2 0h1v1h-1Zm4 0h1v1h-1Zm1 0h1v1h-1Zm1 0h1v1h-1Zm1 0h1v1h-1Zm2 0h1v1h-1Zm2 0h1v1h-1Zm2 0h1v1h-1Zm1 0h1v1h-1Zm2 0h1v1h-1Zm1 0h1v1h-1Zm4 0h1v1h-1Zm1 0h1v1h-1Zm1 0h1v1h-1Zm1 0h1v1h-1Zm2 0h1v1h-1Zm4 0h1v1h-1Zm1 0h1v1h-1Zm2 0h1v1h-1Zm2 0h1v1h-1Zm2 0h1v1h-1Zm2 0h1v1h-1ZM4 33h1v1H4Zm1 0h1v1H5Zm1 0h1v1H6Zm4 0h1v1h-1Zm1 0h1v1h-1Zm1 0h1v1h-1Zm1 0h1v1h-1Zm3 0h1v1h-1Zm1 0h1v1h-1Zm5 0h1v1h-1Zm3 0h1v1h-1Zm2 0h1v1h-1Zm3 0h1v1h-1Zm4 0h1v1h-1Zm1 0h1v1h-1Zm2 0h1v1h-1Zm1 0h1v1h-1Zm1 0h1v1h-1Zm1 0h1v1h-1Zm3 0h1v1h-1Zm1 0h1v1h-1Zm1 0h1v1h-1Zm2 0h1v1h-1Zm4 0h1v1h-1Zm3 0h1v1h-1Zm4 0h1v1h-1Zm1 0h1v1h-1ZM2 34h1v1H2Zm1 0h1v1H3Zm1 0h1v1H4Zm1 0h1v1H5Zm1 0h1v1H6Zm1 0h1v1H7Zm1 0h1v1H8Zm1 0h1v1H9Zm1 0h1v1h-1Zm1 0h1v1h-1Zm3 0h1v1h-1Zm1 0h1v1h-1Zm1 0h1v1h-1Zm2 0h1v1h-1Zm1 0h1v1h-1Zm2 0h1v1h-1Zm1 0h1v1h-1Zm4 0h1v1h-1Zm1 0h1v1h-1Zm2 0h1v1h-1Zm1 0h1v1h-1Zm1 0h1v1h-1Zm1 0h1v1h-1Zm1 0h1v1h-1Zm1 0h1v1h-1Zm2 0h1v1h-1Zm1 0h1v1h-1Zm4 0h1v1h-1Zm1 0h1v1h-1Zm1 0h1v1h-1Zm2 0h1v1h-1Zm3 0h1v1h-1Zm1 0h1v1h-1Zm3 0h1v1h-1Zm2 0h1v1h-1Zm1 0h1v1h-1Zm1 0h1v1h-1Zm1 0h1v1h-1Zm1 0h1v1h-1ZM2 35h1v1H2Zm2 0h1v1H4Zm2 0h1v1H6Zm1 0h1v1H7Zm3 0h1v1h-1Zm3 0h1v1h-1Zm1 0h1v1h-1Zm4 0h1v1h-1Zm4 0h1v1h-1Zm1 0h1v1h-1Zm2 0h1v1h-1Zm1 0h1v1h-1Zm2 0h1v1h-1Zm2 0h1v1h-1Zm1 0h1v1h-1Zm2 0h1v1h-1Zm4 0h1v1h-1Zm2 0h1v1h-1Zm2 0h1v1h-1Zm1 0h1v1h-1Zm1 0h1v1h-1Zm1 0h1v1h-1Zm2 0h1v1h-1Zm3 0h1v1h-1Zm1 0h1v1h-1Zm1 0h1v1h-1Zm4 0h1v1h-1Zm2 0h1v1h-1Zm2 0h1v1h-1Zm3 0h1v1h-1ZM4 36h1v1H4Zm4 0h1v1H8Zm2 0h1v1h-1Zm1 0h1v1h-1Zm2 0h1v1h-1Zm2 0h1v1h-1Zm2 0h1v1h-1Zm1 0h1v1h-1Zm2 0h1v1h-1Zm1 0h1v1h-1Zm1 0h1v1h-1Zm1 0h1v1h-1Zm1 0h1v1h-1Zm2 0h1v1h-1Zm1 0h1v1h-1Zm1 0h1v1h-1Zm4 0h1v1h-1Zm4 0h1v1h-1Zm2 0h1v1h-1Zm4 0h1v1h-1Zm6 0h1v1h-1Zm3 0h1v1h-1Zm2 0h1v1h-1Zm1 0h1v1h-1Zm5 0h1v1h-1Zm2 0h1v1h-1ZM2 37h1v1H2Zm1 0h1v1H3Zm2 0h1v1H5Zm1 0h1v1H6Zm4 0h1v1h-1Zm4 0h1v1h-1Zm3 0h1v1h-1Zm1 0h1v1h-1Zm3 0h1v1h-1Zm1 0h1v1h-1Zm5 0h1v1h-1Zm3 0h1v1h-1Zm1 0h1v1h-1Zm1 0h1v1h-1Zm3 0h1v1h-1Zm1 0h1v1h-1Zm5 0h1v1h-1Zm2 0h1v1h-1Zm1 0h1v1h-1Zm1 0h1v1h-1Zm1 0h1v1h-1Zm4 0h1v1h-1Zm3 0h1v1h-1Zm1 0h1v1h-1Zm2 0h1v1h-1Zm1 0h1v1h-1Zm1 0h1v1h-1Zm2 0h1v1h-1Zm1 0h1v1h-1ZM4 38h1v1H4Zm1 0h1v1H5Zm2 0h1v1H7Zm1 0h1v1H8Zm1 0h1v1H9Zm4 0h1v1h-1Zm1 0h1v1h-1Zm1 0h1v1h-1Zm4 0h1v1h-1Zm1 0h1v1h-1Zm4 0h1v1h-1Zm5 0h1v1h-1Zm1 0h1v1h-1Zm1 0h1v1h-1Zm1 0h1v1h-1Zm1 0h1v1h-1Zm1 0h1v1h-1Zm4 0h1v1h-1Zm1 0h1v1h-1Zm4 0h1v1h-1Zm2 0h1v1h-1Zm2 0h1v1h-1Zm1 0h1v1h-1Zm1 0h1v1h-1Zm1 0h1v1h-1Zm1 0h1v1h-1Zm2 0h1v1h-1Zm2 0h1v1h-1Zm1 0h1v1h-1Zm3 0h1v1h-1Zm2 0h1v1h-1Zm1 0h1v1h-1ZM3 39h1v1H3Zm1 0h1v1H4Zm1 0h1v1H5Zm2 0h1v1H7Zm12 0h1v1h-1Zm1 0h1v1h-1Zm1 0h1v1h-1Zm2 0h1v1h-1Zm1 0h1v1h-1Zm1 0h1v1h-1Zm2 0h1v1h-1Zm2 0h1v1h-1Zm1 0h1v1h-1Zm2 0h1v1h-1Zm2 0h1v1h-1Zm1 0h1v1h-1Zm3 0h1v1h-1Zm2 0h1v1h-1Zm1 0h1v1h-1Zm1 0h1v1h-1Zm4 0h1v1h-1Zm1 0h1v1h-1Zm2 0h1v1h-1Zm2 0h1v1h-1Zm1 0h1v1h-1Zm1 0h1v1h-1Zm1 0h1v1h-1Zm1 0h1v1h-1Zm2 0h1v1h-1Zm1 0h1v1h-1Zm1 0h1v1h-1Zm3 0h1v1h-1ZM2 40h1v1H2Zm1 0h1v1H3Zm1 0h1v1H4Zm2 0h1v1H6Zm1 0h1v1H7Zm1 0h1v1H8Zm2 0h1v1h-1Zm2 0h1v1h-1Zm1 0h1v1h-1Zm2 0h1v1h-1Zm1 0h1v1h-1Zm3 0h1v1h-1Zm1 0h1v1h-1Zm1 0h1v1h-1Zm1 0h1v1h-1Zm1 0h1v1h-1Zm1 0h1v1h-1Zm2 0h1v1h-1Zm1 0h1v1h-1Zm4 0h1v1h-1Zm3 0h1v1h-1Zm1 0h1v1h-1Zm1 0h1v1h-1Zm1 0h1v1h-1Zm1 0h1v1h-1Zm1 0h1v1h-1Zm1 0h1v1h-1Zm2 0h1v1h-1Zm2 0h1v1h-1Zm1 0h1v1h-1Zm4 0h1v1h-1Zm2 0h1v1h-1Zm3 0h1v1h-1Zm5 0h1v1h-1Zm1 0h1v1h-1Zm1 0h1v1h-1Zm1 0h1v1h-1ZM3 41h1v1H3Zm3 0h1v1H6Zm1 0h1v1H7Zm5 0h1v1h-1Zm2 0h1v1h-1Zm3 0h1v1h-1Zm1 0h1v1h-1Zm1 0h1v1h-1Zm1 0h1v1h-1Zm2 0h1v1h-1Zm2 0h1v1h-1Zm3 0h1v1h-1Zm2 0h1v1h-1Zm1 0h1v1h-1Zm2 0h1v1h-1Zm3 0h1v1h-1Zm2 0h1v1h-1Zm2 0h1v1h-1Zm1 0h1v1h-1Zm2 0h1v1h-1Zm1 0h1v1h-1Zm1 0h1v1h-1Zm1 0h1v1h-1Zm2 0h1v1h-1Zm1 0h1v1h-1Zm7 0h1v1h-1Zm3 0h1v1h-1Zm4 0h1v1h-1ZM2 42h1v1H2Zm2 0h1v1H4Zm1 0h1v1H5Zm2 0h1v1H7Zm1 0h1v1H8Zm1 0h1v1H9Zm3 0h1v1h-1Zm1 0h1v1h-1Zm3 0h1v1h-1Zm1 0h1v1h-1Zm1 0h1v1h-1Zm2 0h1v1h-1Zm1 0h1v1h-1Zm2 0h1v1h-1Zm5 0h1v1h-1Zm6 0h1v1h-1Zm1 0h1v1h-1Zm1 0h1v1h-1Zm9 0h1v1h-1Zm1 0h1v1h-1Zm1 0h1v1h-1Zm2 0h1v1h-1Zm2 0h1v1h-1Zm1 0h1v1h-1Zm2 0h1v1h-1Zm4 0h1v1h-1Zm3 0h1v1h-1ZM2 43h1v1H2Zm5 0h1v1H7Zm2 0h1v1H9Zm3 0h1v1h-1Zm4 0h1v1h-1Zm1 0h1v1h-1Zm1 0h1v1h-1Zm1 0h1v1h-1Zm1 0h1v1h-1Zm2 0h1v1h-1Zm1 0h1v1h-1Zm1 0h1v1h-1Zm5 0h1v1h-1Zm2 0h1v1h-1Zm1 0h1v1h-1Zm2 0h1v1h-1Zm1 0h1v1h-1Zm1 0h1v1h-1Zm2 0h1v1h-1Zm1 0h1v1h-1Zm3 0h1v1h-1Zm1 0h1v1h-1Zm2 0h1v1h-1Zm2 0h1v1h-1Zm1 0h1v1h-1Zm1 0h1v1h-1Zm1 0h1v1h-1Zm1 0h1v1h-1Zm9 0h1v1h-1Zm1 0h1v1h-1ZM2 44h1v1H2Zm2 0h1v1H4Zm1 0h1v1H5Zm3 0h1v1H8Zm8 0h1v1h-1Zm3 0h1v1h-1Zm1 0h1v1h-1Zm1 0h1v1h-1Zm4 0h1v1h-1Zm1 0h1v1h-1Zm3 0h1v1h-1Zm5 0h1v1h-1Zm1 0h1v1h-1Zm1 0h1v1h-1Zm1 0h1v1h-1Zm1 0h1v1h-1Zm2 0h1v1h-1Zm7 0h1v1h-1Zm1 0h1v1h-1Zm2 0h1v1h-1Zm1 0h1v1h-1Zm1 0h1v1h-1Zm1 0h1v1h-1Zm2 0h1v1h-1Zm1 0h1v1h-1Zm2 0h1v1h-1Zm1 0h1v1h-1Zm1 0h1v1h-1Zm1 0h1v1h-1Zm1 0h1v1h-1ZM3 45h1v1H3Zm1 0h1v1H4Zm1 0h1v1H5Zm1 0h1v1H6Zm4 0h1v1h-1Zm1 0h1v1h-1Zm2 0h1v1h-1Zm1 0h1v1h-1Zm1 0h1v1h-1Zm1 0h1v1h-1Zm2 0h1v1h-1Zm4 0h1v1h-1Zm2 0h1v1h-1Zm1 0h1v1h-1Zm3 0h1v1h-1Zm1 0h1v1h-1Zm3 0h1v1h-1Zm1 0h1v1h-1Zm1 0h1v1h-1Zm1 0h1v1h-1Zm2 0h1v1h-1Zm1 0h1v1h-1Zm1 0h1v1h-1Zm3 0h1v1h-1Zm5 0h1v1h-1Zm2 0h1v1h-1Zm2 0h1v1h-1Zm3 0h1v1h-1Zm3 0h1v1h-1Zm2 0h1v1h-1Zm3 0h1v1h-1ZM3 46h1v1H3Zm1 0h1v1H4Zm1 0h1v1H5Zm1 0h1v1H6Zm2 0h1v1H8Zm1 0h1v1H9Zm3 0h1v1h-1Zm1 0h1v1h-1Zm2 0h1v1h-1Zm1 0h1v1h-1Zm2 0h1v1h-1Zm1 0h1v1h-1Zm2 0h1v1h-1Zm2 0h1v1h-1Zm1 0h1v1h-1Zm1 0h1v1h-1Zm1 0h1v1h-1Zm3 0h1v1h-1Zm1 0h1v1h-1Zm1 0h1v1h-1Zm2 0h1v1h-1Zm1 0h1v1h-1Zm2 0h1v1h-1Zm1 0h1v1h-1Zm2 0h1v1h-1Zm1 0h1v1h-1Zm1 0h1v1h-1Zm1 0h1v1h-1Zm6 0h1v1h-1Zm1 0h1v1h-1Zm2 0h1v1h-1Zm1 0h1v1h-1Zm3 0h1v1h-1Zm2 0h1v1h-1Zm3 0h1v1h-1Zm2 0h1v1h-1ZM4 47h1v1H4Zm2 0h1v1H6Zm1 0h1v1H7Zm2 0h1v1H9Zm2 0h1v1h-1Zm3 0h1v1h-1Zm1 0h1v1h-1Zm1 0h1v1h-1Zm1 0h1v1h-1Zm3 0h1v1h-1Zm1 0h1v1h-1Zm1 0h1v1h-1Zm1 0h1v1h-1Zm1 0h1v1h-1Zm2 0h1v1h-1Zm3 0h1v1h-1Zm3 0h1v1h-1Zm1 0h1v1h-1Zm2 0h1v1h-1Zm2 0h1v1h-1Zm2 0h1v1h-1Zm2 0h1v1h-1Zm2 0h1v1h-1Zm1 0h1v1h-1Zm5 0h1v1h-1Zm1 0h1v1h-1Zm5 0h1v1h-1Zm1 0h1v1h-1ZM4 48h1v1H4Zm1 0h1v1H5Zm2 0h1v1H7Zm1 0h1v1H8Zm2 0h1v1h-1Zm2 0h1v1h-1Zm1 0h1v1h-1Zm1 0h1v1h-1Zm2 0h1v1h-1Zm1 0h1v1h-1Zm1 0h1v1h-1Zm2 0h1v1h-1Zm3 0h1v1h-1Zm1 0h1v1h-1Zm1 0h1v1h-1Zm2 0h1v1h-1Zm1 0h1v1h-1Zm3 0h1v1h-1Zm3 0h1v1h-1Zm1 0h1v1h-1Zm1 0h1v1h-1Zm1 0h1v1h-1Zm6 0h1v1h-1Zm1 0h1v1h-1Zm4 0h1v1h-1Zm1 0h1v1h-1Zm5 0h1v1h-1Zm1 0h1v1h-1Zm2 0h1v1h-1Zm1 0h1v1h-1Zm1 0h1v1h-1ZM2 49h1v1H2Zm9 0h1v1h-1Zm5 0h1v1h-1Zm2 0h1v1h-1Zm2 0h1v1h-1Zm1 0h1v1h-1Zm1 0h1v1h-1Zm1 0h1v1h-1Zm1 0h1v1h-1Zm8 0h1v1h-1Zm1 0h1v1h-1Zm5 0h1v1h-1Zm1 0h1v1h-1Zm1 0h1v1h-1Zm2 0h1v1h-1Zm2 0h1v1h-1Zm1 0h1v1h-1Zm1 0h1v1h-1Zm1 0h1v1h-1Zm3 0h1v1h-1Zm1 0h1v1h-1Zm1 0h1v1h-1Zm3 0h1v1h-1Zm1 0h1v1h-1Zm2 0h1v1h-1Zm2 0h1v1h-1Zm1 0h1v1h-1ZM3 50h1v1H3Zm1 0h1v1H4Zm1 0h1v1H5Zm1 0h1v1H6Zm1 0h1v1H7Zm1 0h1v1H8Zm1 0h1v1H9Zm1 0h1v1h-1Zm4 0h1v1h-1Zm8 0h1v1h-1Zm2 0h1v1h-1Zm3 0h1v1h-1Zm2 0h1v1h-1Zm2 0h1v1h-1Zm1 0h1v1h-1Zm1 0h1v1h-1Zm1 0h1v1h-1Zm2 0h1v1h-1Zm1 0h1v1h-1Zm1 0h1v1h-1Zm1 0h1v1h-1Zm1 0h1v1h-1Zm5 0h1v1h-1Zm3 0h1v1h-1Zm1 0h1v1h-1Zm1 0h1v1h-1Zm2 0h1v1h-1Zm1 0h1v1h-1Zm2 0h1v1h-1Zm1 0h1v1h-1Zm1 0h1v1h-1Zm1 0h1v1h-1Zm2 0h1v1h-1Zm1 0h1v1h-1ZM4 51h1v1H4Zm1 0h1v1H5Zm1 0h1v1H6Zm1 0h1v1H7Zm2 0h1v1H9Zm2 0h1v1h-1Zm1 0h1v1h-1Zm3 0h1v1h-1Zm1 0h1v1h-1Zm1 0h1v1h-1Zm1 0h1v1h-1Zm1 0h1v1h-1Zm2 0h1v1h-1Zm1 0h1v1h-1Zm2 0h1v1h-1Zm4 0h1v1h-1Zm2 0h1v1h-1Zm1 0h1v1h-1Zm8 0h1v1h-1Zm1 0h1v1h-1Zm5 0h1v1h-1Zm2 0h1v1h-1Zm2 0h1v1h-1Zm2 0h1v1h-1Zm1 0h1v1h-1Zm1 0h1v1h-1Zm2 0h1v1h-1Zm1 0h1v1h-1Zm2 0h1v1h-1Zm1 0h1v1h-1Zm1 0h1v1h-1Zm2 0h1v1h-1ZM4 52h1v1H4Zm1 0h1v1H5Zm1 0h1v1H6Zm1 0h1v1H7Zm1 0h1v1H8Zm5 0h1v1h-1Zm6 0h1v1h-1Zm1 0h1v1h-1Zm4 0h1v1h-1Zm1 0h1v1h-1Zm3 0h1v1h-1Zm4 0h1v1h-1Zm3 0h1v1h-1Zm3 0h1v1h-1Zm1 0h1v1h-1Zm2 0h1v1h-1Zm5 0h1v1h-1Zm2 0h1v1h-1Zm5 0h1v1h-1Zm2 0h1v1h-1Zm4 0h1v1h-1ZM2 53h1v1H2Zm1 0h1v1H3Zm1 0h1v1H4Zm2 0h1v1H6Zm3 0h1v1H9Zm1 0h1v1h-1Zm3 0h1v1h-1Zm3 0h1v1h-1Zm2 0h1v1h-1Zm2 0h1v1h-1Zm2 0h1v1h-1Zm1 0h1v1h-1Zm1 0h1v1h-1Zm2 0h1v1h-1Zm1 0h1v1h-1Zm1 0h1v1h-1Zm5 0h1v1h-1Zm6 0h1v1h-1Zm1 0h1v1h-1Zm2 0h1v1h-1Zm1 0h1v1h-1Zm1 0h1v1h-1Zm1 0h1v1h-1Zm1 0h1v1h-1Zm1 0h1v1h-1Zm1 0h1v1h-1Zm2 0h1v1h-1Zm6 0h1v1h-1Zm5 0h1v1h-1ZM2 54h1v1H2Zm1 0h1v1H3Zm1 0h1v1H4Zm1 0h1v1H5Zm3 0h1v1H8Zm1 0h1v1H9Zm3 0h1v1h-1Zm1 0h1v1h-1Zm8 0h1v1h-1Zm1 0h1v1h-1Zm1 0h1v1h-1Zm1 0h1v1h-1Zm2 0h1v1h-1Zm1 0h1v1h-1Zm1 0h1v1h-1Zm2 0h1v1h-1Zm1 0h1v1h-1Zm1 0h1v1h-1Zm1 0h1v1h-1Zm1 0h1v1h-1Zm1 0h1v1h-1Zm8 0h1v1h-1Zm3 0h1v1h-1Zm1 0h1v1h-1Zm7 0h1v1h-1Zm1 0h1v1h-1Zm1 0h1v1h-1Zm1 0h1v1h-1Zm1 0h1v1h-1Zm2 0h1v1h-1Zm1 0h1v1h-1Zm1 0h1v1h-1Zm-52 1h1v1h-1Zm2 0h1v1h-1Zm4 0h1v1h-1Zm1 0h1v1h-1Zm1 0h1v1h-1Zm1 0h1v1h-1Zm2 0h1v1h-1Zm2 0h1v1h-1Zm4 0h1v1h-1Zm1 0h1v1h-1Zm1 0h1v1h-1Zm1 0h1v1h-1Zm4 0h1v1h-1Zm1 0h1v1h-1Zm1 0h1v1h-1Zm2 0h1v1h-1Zm5 0h1v1h-1Zm2 0h1v1h-1Zm1 0h1v1h-1Zm1 0h1v1h-1Zm1 0h1v1h-1Zm2 0h1v1h-1Zm4 0h1v1h-1Zm4 0h1v1h-1Zm4 0h1v1h-1ZM2 56h1v1H2Zm1 0h1v1H3Zm1 0h1v1H4Zm1 0h1v1H5Zm1 0h1v1H6Zm1 0h1v1H7Zm1 0h1v1H8Zm2 0h1v1h-1Zm2 0h1v1h-1Zm1 0h1v1h-1Zm1 0h1v1h-1Zm1 0h1v1h-1Zm1 0h1v1h-1Zm1 0h1v1h-1Zm1 0h1v1h-1Zm4 0h1v1h-1Zm1 0h1v1h-1Zm3 0h1v1h-1Zm4 0h1v1h-1Zm2 0h1v1h-1Zm2 0h1v1h-1Zm2 0h1v1h-1Zm4 0h1v1h-1Zm2 0h1v1h-1Zm2 0h1v1h-1Zm1 0h1v1h-1Zm1 0h1v1h-1Zm1 0h1v1h-1Zm1 0h1v1h-1Zm1 0h1v1h-1Zm1 0h1v1h-1Zm1 0h1v1h-1Zm1 0h1v1h-1Zm2 0h1v1h-1Zm2 0h1v1h-1Zm2 0h1v1h-1Zm1 0h1v1h-1Zm1 0h1v1h-1Zm1 0h1v1h-1Zm1 0h1v1h-1ZM2 57h1v1H2Zm6 0h1v1H8Zm2 0h1v1h-1Zm1 0h1v1h-1Zm1 0h1v1h-1Zm2 0h1v1h-1Zm2 0h1v1h-1Zm1 0h1v1h-1Zm3 0h1v1h-1Zm1 0h1v1h-1Zm3 0h1v1h-1Zm2 0h1v1h-1Zm1 0h1v1h-1Zm1 0h1v1h-1Zm1 0h1v1h-1Zm1 0h1v1h-1Zm4 0h1v1h-1Zm3 0h1v1h-1Zm1 0h1v1h-1Zm1 0h1v1h-1Zm3 0h1v1h-1Zm5 0h1v1h-1Zm1 0h1v1h-1Zm2 0h1v1h-1Zm1 0h1v1h-1Zm3 0h1v1h-1Zm4 0h1v1h-1Zm1 0h1v1h-1Zm3 0h1v1h-1ZM2 58h1v1H2Zm2 0h1v1H4Zm1 0h1v1H5Zm1 0h1v1H6Zm2 0h1v1H8Zm3 0h1v1h-1Zm1 0h1v1h-1Zm3 0h1v1h-1Zm1 0h1v1h-1Zm4 0h1v1h-1Zm1 0h1v1h-1Zm1 0h1v1h-1Zm2 0h1v1h-1Zm2 0h1v1h-1Zm1 0h1v1h-1Zm3 0h1v1h-1Zm1 0h1v1h-1Zm1 0h1v1h-1Zm1 0h1v1h-1Zm1 0h1v1h-1Zm3 0h1v1h-1Zm2 0h1v1h-1Zm1 0h1v1h-1Zm1 0h1v1h-1Zm1 0h1v1h-1Zm1 0h1v1h-1Zm2 0h1v1h-1Zm2 0h1v1h-1Zm2 0h1v1h-1Zm5 0h1v1h-1Zm1 0h1v1h-1Zm1 0h1v1h-1Zm1 0h1v1h-1Zm1 0h1v1h-1Zm2 0h1v1h-1Zm1 0h1v1h-1Zm1 0h1v1h-1ZM2 59h1v1H2Zm2 0h1v1H4Zm1 0h1v1H5Zm1 0h1v1H6Zm2 0h1v1H8Zm2 0h1v1h-1Zm1 0h1v1h-1Zm2 0h1v1h-1Zm1 0h1v1h-1Zm5 0h1v1h-1Zm1 0h1v1h-1Zm2 0h1v1h-1Zm1 0h1v1h-1Zm2 0h1v1h-1Zm1 0h1v1h-1Zm1 0h1v1h-1Zm1 0h1v1h-1Zm1 0h1v1h-1Zm2 0h1v1h-1Zm1 0h1v1h-1Zm2 0h1v1h-1Zm5 0h1v1h-1Zm4 0h1v1h-1Zm1 0h1v1h-1Zm6 0h1v1h-1Zm1 0h1v1h-1Zm3 0h1v1h-1Zm1 0h1v1h-1Zm2 0h1v1h-1Zm1 0h1v1h-1Zm4 0h1v1h-1ZM2 60h1v1H2Zm2 0h1v1H4Zm1 0h1v1H5Zm1 0h1v1H6Zm2 0h1v1H8Zm2 0h1v1h-1Zm3 0h1v1h-1Zm2 0h1v1h-1Zm1 0h1v1h-1Zm2 0h1v1h-1Zm1 0h1v1h-1Zm2 0h1v1h-1Zm2 0h1v1h-1Zm1 0h1v1h-1Zm1 0h1v1h-1Zm2 0h1v1h-1Zm2 0h1v1h-1Zm2 0h1v1h-1Zm12 0h1v1h-1Zm2 0h1v1h-1Zm1 0h1v1h-1Zm2 0h1v1h-1Zm1 0h1v1h-1Zm3 0h1v1h-1Zm6 0h1v1h-1Zm1 0h1v1h-1Zm1 0h1v1h-1Zm1 0h1v1h-1ZM2 61h1v1H2Zm6 0h1v1H8Zm4 0h1v1h-1Zm5 0h1v1h-1Zm1 0h1v1h-1Zm1 0h1v1h-1Zm1 0h1v1h-1Zm4 0h1v1h-1Zm1 0h1v1h-1Zm2 0h1v1h-1Zm1 0h1v1h-1Zm6 0h1v1h-1Zm5 0h1v1h-1Zm2 0h1v1h-1Zm2 0h1v1h-1Zm2 0h1v1h-1Zm1 0h1v1h-1Zm1 0h1v1h-1Zm2 0h1v1h-1Zm1 0h1v1h-1Zm1 0h1v1h-1Zm2 0h1v1h-1Zm1 0h1v1h-1Zm1 0h1v1h-1Zm3 0h1v1h-1Zm1 0h1v1h-1Zm1 0h1v1h-1ZM2 62h1v1H2Zm1 0h1v1H3Zm1 0h1v1H4Zm1 0h1v1H5Zm1 0h1v1H6Zm1 0h1v1H7Zm1 0h1v1H8Zm2 0h1v1h-1Zm6 0h1v1h-1Zm1 0h1v1h-1Zm2 0h1v1h-1Zm4 0h1v1h-1Zm3 0h1v1h-1Zm1 0h1v1h-1Zm1 0h1v1h-1Zm4 0h1v1h-1Zm1 0h1v1h-1Zm4 0h1v1h-1Zm1 0h1v1h-1Zm5 0h1v1h-1Zm1 0h1v1h-1Zm3 0h1v1h-1Zm1 0h1v1h-1Zm2 0h1v1h-1Zm2 0h1v1h-1Zm5 0h1v1h-1Zm2 0h1v1h-1Zm2 0h1v1h-1Zm1 0h1v1h-1Z"/></svg>